<svg width="396" height="251.34613849686534" viewBox="0 0 350 222.14936483308804" class="looka-1j8o68f"><defs id="SvgjsDefs1661"></defs><g id="SvgjsG1662" featurekey="symbolFeature-0" transform="matrix(4.375,0,0,4.375,105,0)" fill="#d3d6db"><g xmlns="http://www.w3.org/2000/svg" display="none"><rect x="-69.333" y="-18.667" display="inline" fill="#d3d6db" width="473.333" height="236"></rect></g><g xmlns="http://www.w3.org/2000/svg" display="none"><g display="inline"><g><polygon fill="#d3d6db" points="32,15.976 15.976,32 0,16.024    "></polygon></g><g><polygon points="23.347,15.989 15.989,23.347 8.653,16.011    "></polygon></g><g><polygon fill="#d3d6db" points="0,16.024 16.024,0 32,15.976    "></polygon></g><g><polygon fill="#d3d6db" points="8.653,16.011 16.011,8.653 23.347,15.989    "></polygon></g></g></g><g xmlns="http://www.w3.org/2000/svg" display="none"><g display="inline"><path fill="#d3d6db" d="M16,1c8.271,0,15,6.729,15,15s-6.729,15-15,15S1,24.271,1,16S7.729,1,16,1 M16,0C7.163,0,0,7.163,0,16    s7.163,16,16,16s16-7.163,16-16S24.837,0,16,0L16,0z"></path></g><g display="inline"><path fill="#d3d6db" d="M13.034,6.153l2.259,2.259L16,9.119l0.707-0.707l2.259-2.259l0.744,0.744l-2.259,2.259l-0.707,0.707    l0.707,0.707l2.259,2.259l-0.744,0.744l-2.259-2.259L16,10.607l-0.707,0.707l-2.259,2.259l-0.744-0.744l2.259-2.259l0.707-0.707    l-0.707-0.707L12.29,6.897L13.034,6.153 M18.966,4.738L16,7.705l-2.966-2.966l-2.158,2.158l2.966,2.966l-2.966,2.966l2.158,2.158    L16,12.021l2.966,2.966l2.158-2.158l-2.966-2.966l2.966-2.966L18.966,4.738L18.966,4.738z"></path></g><g display="inline"><path fill="#d3d6db" d="M13.034,18.427l2.259,2.259L16,21.393l0.707-0.707l2.259-2.259l0.744,0.744l-2.259,2.259l-0.707,0.707    l0.707,0.707l2.259,2.259l-0.744,0.744l-2.259-2.259L16,22.881l-0.707,0.707l-2.259,2.259l-0.744-0.744l2.259-2.259l0.707-0.707    l-0.707-0.707l-2.259-2.259L13.034,18.427 M18.966,17.013L16,19.979l-2.966-2.966l-2.158,2.158l2.966,2.966l-2.966,2.966    l2.158,2.158L16,24.295l2.966,2.966l2.158-2.158l-2.966-2.966l2.966-2.966L18.966,17.013L18.966,17.013z"></path></g></g><g xmlns="http://www.w3.org/2000/svg" display="none"><g display="inline"><rect x="2" y="2" fill="#d3d6db" width="28" height="28"></rect></g><g display="inline"><g><path fill="#d3d6db" d="M16,31.5C7.453,31.5,0.5,24.547,0.5,16S7.453,0.5,16,0.5S31.5,7.453,31.5,16S24.547,31.5,16,31.5z"></path></g><g><g><path d="M16,1c8.271,0,15,6.729,15,15s-6.729,15-15,15S1,24.271,1,16S7.729,1,16,1 M16,0C7.163,0,0,7.163,0,16s7.163,16,16,16      s16-7.163,16-16S24.837,0,16,0L16,0z"></path></g></g></g><g display="inline"><g><polygon fill="#d3d6db" points="16,11.314 13.034,14.28 11.582,12.829 14.549,9.863 11.582,6.896 13.034,5.445 16,8.412      18.966,5.445 20.418,6.896 17.451,9.863 20.418,12.829 18.966,14.28    "></polygon></g><g><path d="M13.034,6.153l2.259,2.259L16,9.119l0.707-0.707l2.259-2.259l0.744,0.744l-2.259,2.259l-0.707,0.707l0.707,0.707     l2.259,2.259l-0.744,0.744l-2.259-2.259L16,10.607l-0.707,0.707l-2.259,2.259l-0.744-0.744l2.259-2.259l0.707-0.707l-0.707-0.707     L12.29,6.897L13.034,6.153 M18.966,4.738L16,7.705l-2.966-2.966l-2.158,2.158l2.966,2.966l-2.966,2.966l2.158,2.158L16,12.021     l2.966,2.966l2.158-2.158l-2.966-2.966l2.966-2.966L18.966,4.738L18.966,4.738z"></path></g></g><g display="inline"><g><polygon fill="#d3d6db" points="16,23.589 13.034,26.555 11.582,25.104 14.549,22.137 11.582,19.171 13.034,17.72 16,20.686      18.966,17.72 20.418,19.171 17.451,22.137 20.418,25.104 18.966,26.555    "></polygon></g><g><path d="M13.034,18.427l2.259,2.259L16,21.393l0.707-0.707l2.259-2.259l0.744,0.744l-2.259,2.259l-0.707,0.707l0.707,0.707     l2.259,2.259l-0.744,0.744l-2.259-2.259L16,22.881l-0.707,0.707l-2.259,2.259l-0.744-0.744l2.259-2.259l0.707-0.707l-0.707-0.707     l-2.259-2.259L13.034,18.427 M18.966,17.013L16,19.979l-2.966-2.966l-2.158,2.158l2.966,2.966l-2.966,2.966l2.158,2.158     L16,24.295l2.966,2.966l2.158-2.158l-2.966-2.966l2.966-2.966L18.966,17.013L18.966,17.013z"></path></g></g></g><g xmlns="http://www.w3.org/2000/svg"><g><path d="M0,16.024L15.976,32L32,15.976L16.024,0L0,16.024z M15.989,23.347l-7.336-7.336l14.694-0.022L15.989,23.347z"></path></g></g></g><g id="SvgjsG1663" featurekey="fiAKjI-0" transform="matrix(3.35248988246715,0,0,3.35248988246715,-2.8160916131738283,139.81801416867492)" fill="#ffffff"><path d="M0.84 20 l0 -13.7 l10.02 0 l0 2.8 l-6.92 0 l0 2.58 l6.4 0 l0 2.72 l-6.4 0 l0 2.8 l6.94 0 l0 2.8 l-10.04 0 z M19.18 8.9 c-2.32 0 -4.08 1.86 -4.08 4.22 c0 2.42 1.76 4.26 4.18 4.26 c1.68 0 2.96 -0.88 3.74 -2.22 l2.42 1.68 c-1.32 2.16 -3.34 3.44 -6.12 3.44 c-4.22 0 -7.38 -3.14 -7.38 -7.16 c0 -3.98 3.14 -7.1 7.3 -7.1 c2.7 0 4.84 1.12 6.14 3.42 l-2.46 1.7 c-0.8 -1.32 -2 -2.24 -3.74 -2.24 z M33.58 20.28 c-4 0 -7.26 -3.06 -7.26 -7.12 c0 -4.08 3.26 -7.14 7.26 -7.14 c4.1 0 7.26 3.06 7.26 7.12 c0 4.08 -3.16 7.14 -7.26 7.14 z M33.58 17.4 c2.32 0 4.1 -1.84 4.1 -4.26 c0 -2.38 -1.78 -4.24 -4.1 -4.24 s-4.1 1.86 -4.1 4.26 s1.78 4.24 4.1 4.24 z M48.879999999999995 20 l-3.7 -8.18 l0 8.18 l-2.98 0 l0 -13.7 l3.72 0 l4.02 9.06 l4.02 -9.06 l3.72 0 l0 13.7 l-3.04 0 l0 -8.22 l-3.72 8.22 l-2.04 0 z M59.36 20 l0 -13.7 l10.02 0 l0 2.8 l-6.92 0 l0 2.58 l6.4 0 l0 2.72 l-6.4 0 l0 2.8 l6.94 0 l0 2.8 l-10.04 0 z M77.42 20 l-3.1 0 l0 -10.86 l-4.08 0 l0 -2.84 l11.26 0 l0 2.84 l-4.08 0 l0 10.86 z M82.64 20 l0 -13.7 l10.02 0 l0 2.8 l-6.92 0 l0 2.58 l6.4 0 l0 2.72 l-6.4 0 l0 2.8 l6.94 0 l0 2.8 l-10.04 0 z M99.44 9.14 l-2.28 0 l0 3.66 l2.18 0 c1.34 0 2.16 -0.76 2.16 -1.82 s-0.68 -1.84 -2.06 -1.84 z M97.16 15.34 l0 4.66 l-3.1 0 l0 -13.7 l5.84 0 c2.92 0 4.72 1.88 4.72 4.56 c0 2.14 -1.42 3.92 -3.74 4.38 l4.36 4.76 l-4.04 0 z"></path></g><g id="SvgjsG1664" featurekey="sloganFeature-0" transform="matrix(0.28815032418104897,0,0,0.28815032418104897,34.873213703471464,216.3287280647896)" fill="#d3d6db"><path d="M12.14 6 l-4.94 7.78 l0 6.22 l-1.8 0 l0 -6.2 l-4.96 -7.8 l2.04 0 l3.82 6.02 l3.8 -6.02 l2.04 0 z M23.447000000000003 20.2 c-4 0 -7.18 -3.2 -7.18 -7.2 s3.18 -7.2 7.18 -7.2 s7.18 3.2 7.18 7.2 s-3.18 7.2 -7.18 7.2 z M23.447000000000003 18.48 c3.04 0 5.32 -2.38 5.32 -5.48 s-2.28 -5.48 -5.32 -5.48 c-3.06 0 -5.34 2.38 -5.34 5.48 s2.28 5.48 5.34 5.48 z M35.874 14.46 l0 -8.46 l1.8 0 l0 8.32 c0 2.7 1.56 4.08 3.76 4.08 s3.78 -1.38 3.78 -4.08 l0 -8.32 l1.78 0 l0 8.46 c0 3.64 -2.08 5.74 -5.56 5.74 c-3.46 0 -5.56 -2.1 -5.56 -5.74 z M62.981 11.06 c0 2.26 -1.06 4.2 -3.24 4.84 l3.02 4.1 l-2.16 0 l-2.86 -3.88 l-3.14 0 l0 3.88 l-1.8 0 l0 -14 l5.28 0 c3.3 0 4.9 2.28 4.9 5.06 z M54.601 7.68 l0 6.74 l3.4 0 c2.26 0 3.18 -1.66 3.18 -3.36 s-0.92 -3.38 -3.18 -3.38 l-3.4 0 z M89.295 11.88 l0 6.86 c-1.08 0.82 -2.56 1.46 -4.9 1.46 c-4.4 0 -7.26 -3.2 -7.26 -7.2 s3.02 -7.2 7.22 -7.2 c1.94 0 3.54 0.7 4.8 1.7 l-0.94 1.36 c-1.1 -0.88 -2.46 -1.34 -3.86 -1.34 c-3 0 -5.34 2.28 -5.34 5.48 s2.16 5.46 5.38 5.46 c1.22 0 2.26 -0.26 3.1 -0.66 l0 -4.18 l-2.7 0 l0.12 -1.74 l4.38 0 z M101.642 20.2 c-4 0 -7.18 -3.2 -7.18 -7.2 s3.18 -7.2 7.18 -7.2 s7.18 3.2 7.18 7.2 s-3.18 7.2 -7.18 7.2 z M101.642 18.48 c3.04 0 5.32 -2.38 5.32 -5.48 s-2.28 -5.48 -5.32 -5.48 c-3.06 0 -5.34 2.38 -5.34 5.48 s2.28 5.48 5.34 5.48 z M118.949 12.780000000000001 l0 1.62 l-4.74 0 l0 -1.62 l4.74 0 z M133.636 7.720000000000001 l-4.08 0 l0 12.28 l-1.8 0 l0 -12.28 l-4.1 0 l0.12 -1.72 l9.74 0 z M144.983 20.2 c-4 0 -7.18 -3.2 -7.18 -7.2 s3.18 -7.2 7.18 -7.2 s7.18 3.2 7.18 7.2 s-3.18 7.2 -7.18 7.2 z M144.983 18.48 c3.04 0 5.32 -2.38 5.32 -5.48 s-2.28 -5.48 -5.32 -5.48 c-3.06 0 -5.34 2.38 -5.34 5.48 s2.28 5.48 5.34 5.48 z M175.67700000000002 7.720000000000001 l-4.08 0 l0 12.28 l-1.8 0 l0 -12.28 l-4.1 0 l0.12 -1.72 l9.74 0 z M187.02400000000003 20.2 c-4 0 -7.18 -3.2 -7.18 -7.2 s3.18 -7.2 7.18 -7.2 s7.18 3.2 7.18 7.2 s-3.18 7.2 -7.18 7.2 z M187.02400000000003 18.48 c3.04 0 5.32 -2.38 5.32 -5.48 s-2.28 -5.48 -5.32 -5.48 c-3.06 0 -5.34 2.38 -5.34 5.48 s2.28 5.48 5.34 5.48 z M206.21100000000004 20.2 c-4 0 -7.18 -3.2 -7.18 -7.2 s3.18 -7.2 7.18 -7.2 s7.18 3.2 7.18 7.2 s-3.18 7.2 -7.18 7.2 z M206.21100000000004 18.48 c3.04 0 5.32 -2.38 5.32 -5.48 s-2.28 -5.48 -5.32 -5.48 c-3.06 0 -5.34 2.38 -5.34 5.48 s2.28 5.48 5.34 5.48 z M220.57800000000006 18.28 l5.92 0 l-0.12 1.72 l-7.6 0 l0 -14 l1.8 0 l0 12.28 z M242.41200000000006 7.720000000000001 l0 4.32 l4.28 0 l0 1.72 l-4.28 0 l0 6.24 l-1.8 0 l0 -14 l7.96 0 l0.12 1.72 l-6.28 0 z M260.4390000000001 20.2 c-4 0 -7.18 -3.2 -7.18 -7.2 s3.18 -7.2 7.18 -7.2 s7.18 3.2 7.18 7.2 s-3.18 7.2 -7.18 7.2 z M260.4390000000001 18.48 c3.04 0 5.32 -2.38 5.32 -5.48 s-2.28 -5.48 -5.32 -5.48 c-3.06 0 -5.34 2.38 -5.34 5.48 s2.28 5.48 5.34 5.48 z M283.18600000000004 11.06 c0 2.26 -1.06 4.2 -3.24 4.84 l3.02 4.1 l-2.16 0 l-2.86 -3.88 l-3.14 0 l0 3.88 l-1.8 0 l0 -14 l5.28 0 c3.3 0 4.9 2.28 4.9 5.06 z M274.80600000000004 7.68 l0 6.74 l3.4 0 c2.26 0 3.18 -1.66 3.18 -3.36 s-0.92 -3.38 -3.18 -3.38 l-3.4 0 z M306.30000000000007 18.28 l0.12 1.72 l-8.52 0 l0 -14 l8.12 0 l0.14 1.72 l-6.46 0 l0 3.42 l4.38 0 l0 1.72 l-4.38 0 l0 5.42 l6.6 0 z M310.3670000000001 6 l1.96 0 l4.24 10.24 l4.26 -10.24 l1.96 0 l-6.1 14.2 l-0.22 0 z M336.73400000000004 20 l-1.22 -2.84 l-6.24 0 l-1.22 2.84 l-1.92 0 l6.16 -14.2 l0.2 0 l6.16 14.2 l-1.92 0 z M329.9940000000001 15.48 l4.8 0 l-2.4 -5.54 z M345.0010000000001 18.28 l5.92 0 l-0.12 1.72 l-7.6 0 l0 -14 l1.8 0 l0 12.28 z M355.5080000000001 14.46 l0 -8.46 l1.8 0 l0 8.32 c0 2.7 1.56 4.08 3.76 4.08 s3.78 -1.38 3.78 -4.08 l0 -8.32 l1.78 0 l0 8.46 c0 3.64 -2.08 5.74 -5.56 5.74 c-3.46 0 -5.56 -2.1 -5.56 -5.74 z M381.63500000000005 20 l-1.22 -2.84 l-6.24 0 l-1.22 2.84 l-1.92 0 l6.16 -14.2 l0.2 0 l6.16 14.2 l-1.92 0 z M374.8950000000001 15.48 l4.8 0 l-2.4 -5.54 z M396.84200000000004 7.720000000000001 l-4.08 0 l0 12.28 l-1.8 0 l0 -12.28 l-4.1 0 l0.12 -1.72 l9.74 0 z M401.569 20 l0 -14 l1.8 0 l0 14 l-1.8 0 z M418.896 6 l1.8 0 l0 14.2 l-0.22 0 l-9.4 -9.98 l0 9.78 l-1.78 0 l0 -14.2 l0.2 0 l9.4 9.98 l0 -9.78 z M438.223 11.88 l0 6.86 c-1.08 0.82 -2.56 1.46 -4.9 1.46 c-4.4 0 -7.26 -3.2 -7.26 -7.2 s3.02 -7.2 7.22 -7.2 c1.94 0 3.54 0.7 4.8 1.7 l-0.94 1.36 c-1.1 -0.88 -2.46 -1.34 -3.86 -1.34 c-3 0 -5.34 2.28 -5.34 5.48 s2.16 5.46 5.38 5.46 c1.22 0 2.26 -0.26 3.1 -0.66 l0 -4.18 l-2.7 0 l0.12 -1.74 l4.38 0 z M462.537 20 l-1.22 -2.84 l-6.24 0 l-1.22 2.84 l-1.92 0 l6.16 -14.2 l0.2 0 l6.16 14.2 l-1.92 0 z M455.797 15.48 l4.8 0 l-2.4 -5.54 z M478.604 6 l1.8 0 l0 14.2 l-0.22 0 l-9.4 -9.98 l0 9.78 l-1.78 0 l0 -14.2 l0.2 0 l9.4 9.98 l0 -9.78 z M491.131 6 c4.64 0 7.2 2.84 7.2 7 s-2.56 7 -7.2 7 l-4.8 0 l0 -14 l4.8 0 z M491.231 18.28 c3.4 0 5.3 -2.12 5.3 -5.28 c0 -3.18 -1.9 -5.28 -5.3 -5.28 l-3.1 0 l0 10.56 l3.1 0 z M526.485 5.800000000000001 l0.22 0 l0 14.2 l-1.78 0 l0 -9.42 l-4.96 6.48 l-0.12 0 l-4.96 -6.46 l0 9.4 l-1.78 0 l0 -14.2 l0.2 0 l6.6 8.4 z M541.832 20 l-1.22 -2.84 l-6.24 0 l-1.22 2.84 l-1.92 0 l6.16 -14.2 l0.2 0 l6.16 14.2 l-1.92 0 z M535.092 15.48 l4.8 0 l-2.4 -5.54 z M557.899 6 l1.8 0 l0 14.2 l-0.22 0 l-9.4 -9.98 l0 9.78 l-1.78 0 l0 -14.2 l0.2 0 l9.4 9.98 l0 -9.78 z M574.826 20 l-1.22 -2.84 l-6.24 0 l-1.22 2.84 l-1.92 0 l6.16 -14.2 l0.2 0 l6.16 14.2 l-1.92 0 z M568.086 15.48 l4.8 0 l-2.4 -5.54 z M592.893 11.88 l0 6.86 c-1.08 0.82 -2.56 1.46 -4.9 1.46 c-4.4 0 -7.26 -3.2 -7.26 -7.2 s3.02 -7.2 7.22 -7.2 c1.94 0 3.54 0.7 4.8 1.7 l-0.94 1.36 c-1.1 -0.88 -2.46 -1.34 -3.86 -1.34 c-3 0 -5.34 2.28 -5.34 5.48 s2.16 5.46 5.38 5.46 c1.22 0 2.26 -0.26 3.1 -0.66 l0 -4.18 l-2.7 0 l0.12 -1.74 l4.38 0 z M598.6200000000001 20 l0 -14 l1.8 0 l0 14 l-1.8 0 z M615.947 6 l1.8 0 l0 14.2 l-0.22 0 l-9.4 -9.98 l0 9.78 l-1.78 0 l0 -14.2 l0.2 0 l9.4 9.98 l0 -9.78 z M635.274 11.88 l0 6.86 c-1.08 0.82 -2.56 1.46 -4.9 1.46 c-4.4 0 -7.26 -3.2 -7.26 -7.2 s3.02 -7.2 7.22 -7.2 c1.94 0 3.54 0.7 4.8 1.7 l-0.94 1.36 c-1.1 -0.88 -2.46 -1.34 -3.86 -1.34 c-3 0 -5.34 2.28 -5.34 5.48 s2.16 5.46 5.38 5.46 c1.22 0 2.26 -0.26 3.1 -0.66 l0 -4.18 l-2.7 0 l0.12 -1.74 l4.38 0 z M660.8280000000001 6 l-4.94 7.78 l0 6.22 l-1.8 0 l0 -6.2 l-4.96 -7.8 l2.04 0 l3.82 6.02 l3.8 -6.02 l2.04 0 z M672.1350000000001 20.2 c-4 0 -7.18 -3.2 -7.18 -7.2 s3.18 -7.2 7.18 -7.2 s7.18 3.2 7.18 7.2 s-3.18 7.2 -7.18 7.2 z M672.1350000000001 18.48 c3.04 0 5.32 -2.38 5.32 -5.48 s-2.28 -5.48 -5.32 -5.48 c-3.06 0 -5.34 2.38 -5.34 5.48 s2.28 5.48 5.34 5.48 z M684.562 14.46 l0 -8.46 l1.8 0 l0 8.32 c0 2.7 1.56 4.08 3.76 4.08 s3.78 -1.38 3.78 -4.08 l0 -8.32 l1.78 0 l0 8.46 c0 3.64 -2.08 5.74 -5.56 5.74 c-3.46 0 -5.56 -2.1 -5.56 -5.74 z M711.6690000000001 11.06 c0 2.26 -1.06 4.2 -3.24 4.84 l3.02 4.1 l-2.16 0 l-2.86 -3.88 l-3.14 0 l0 3.88 l-1.8 0 l0 -14 l5.28 0 c3.3 0 4.9 2.28 4.9 5.06 z M703.2890000000001 7.68 l0 6.74 l3.4 0 c2.26 0 3.18 -1.66 3.18 -3.36 s-0.92 -3.38 -3.18 -3.38 l-3.4 0 z M725.823 13 c0 -4.04 3.18 -7.2 7.18 -7.2 c1.68 0 3.28 0.56 4.7 1.64 l-0.9 1.4 c-1.18 -0.9 -2.4 -1.34 -3.8 -1.34 c-3.02 0 -5.38 2.42 -5.38 5.5 s2.38 5.5 5.38 5.5 c1.52 0 2.82 -0.48 3.8 -1.42 l0.92 1.38 c-1.22 1.1 -2.94 1.74 -4.72 1.74 c-4 0 -7.18 -3.18 -7.18 -7.2 z M752.0699999999999 20 l-1.22 -2.84 l-6.24 0 l-1.22 2.84 l-1.92 0 l6.16 -14.2 l0.2 0 l6.16 14.2 l-1.92 0 z M745.3299999999999 15.48 l4.8 0 l-2.4 -5.54 z M768.717 11.06 c0 2.26 -1.06 4.2 -3.24 4.84 l3.02 4.1 l-2.16 0 l-2.86 -3.88 l-3.14 0 l0 3.88 l-1.8 0 l0 -14 l5.28 0 c3.3 0 4.9 2.28 4.9 5.06 z M760.337 7.68 l0 6.74 l3.4 0 c2.26 0 3.18 -1.66 3.18 -3.36 s-0.92 -3.38 -3.18 -3.38 l-3.4 0 z M781.6439999999999 11.16 c1.76 0.64 2.78 2.24 2.78 4.28 c0 2.38 -1.18 4.48 -5 4.56 l-5.38 0 l0 -14 l5.6 0 c2.46 0 3.14 1.8 3.14 2.94 c0 1 -0.6 1.8 -1.14 2.22 z M779.424 7.619999999999999 l-3.58 0 l0 3.12 l3.2 0 c1.42 0 1.98 -0.72 1.98 -1.58 c0 -0.62 -0.4 -1.54 -1.6 -1.54 z M779.2639999999999 18.28 c2.32 0 3.32 -1.16 3.32 -2.84 c0 -1.88 -1.04 -3.2 -3.28 -3.2 l-3.46 0 l0 6.04 l3.42 0 z M796.1709999999999 20.2 c-4 0 -7.18 -3.2 -7.18 -7.2 s3.18 -7.2 7.18 -7.2 s7.18 3.2 7.18 7.2 s-3.18 7.2 -7.18 7.2 z M796.1709999999999 18.48 c3.04 0 5.32 -2.38 5.32 -5.48 s-2.28 -5.48 -5.32 -5.48 c-3.06 0 -5.34 2.38 -5.34 5.48 s2.28 5.48 5.34 5.48 z M818.3379999999999 6 l1.8 0 l0 14.2 l-0.22 0 l-9.4 -9.98 l0 9.78 l-1.78 0 l0 -14.2 l0.2 0 l9.4 9.98 l0 -9.78 z M837.252 7.720000000000001 l0 4.32 l4.28 0 l0 1.72 l-4.28 0 l0 6.24 l-1.8 0 l0 -14 l7.96 0 l0.12 1.72 l-6.28 0 z M855.279 20.2 c-4 0 -7.18 -3.2 -7.18 -7.2 s3.18 -7.2 7.18 -7.2 s7.18 3.2 7.18 7.2 s-3.18 7.2 -7.18 7.2 z M855.279 18.48 c3.04 0 5.32 -2.38 5.32 -5.48 s-2.28 -5.48 -5.32 -5.48 c-3.06 0 -5.34 2.38 -5.34 5.48 s2.28 5.48 5.34 5.48 z M874.466 20.2 c-4 0 -7.18 -3.2 -7.18 -7.2 s3.18 -7.2 7.18 -7.2 s7.18 3.2 7.18 7.2 s-3.18 7.2 -7.18 7.2 z M874.466 18.48 c3.04 0 5.32 -2.38 5.32 -5.48 s-2.28 -5.48 -5.32 -5.48 c-3.06 0 -5.34 2.38 -5.34 5.48 s2.28 5.48 5.34 5.48 z M895.773 7.720000000000001 l-4.08 0 l0 12.28 l-1.8 0 l0 -12.28 l-4.1 0 l0.12 -1.72 l9.74 0 z M905.8 6 c3.28 0 4.82 2.48 4.82 5.1 s-1.54 5.1 -4.82 5.1 l-3.5 0 l0 3.8 l-1.8 0 l0 -14 l5.3 0 z M905.7199999999999 14.48 c1.84 0 3.06 -1.42 3.06 -3.38 s-1.22 -3.38 -3.06 -3.38 l-3.42 0 l0 6.76 l3.42 0 z M926.1669999999999 11.06 c0 2.26 -1.06 4.2 -3.24 4.84 l3.02 4.1 l-2.16 0 l-2.86 -3.88 l-3.14 0 l0 3.88 l-1.8 0 l0 -14 l5.28 0 c3.3 0 4.9 2.28 4.9 5.06 z M917.7869999999999 7.68 l0 6.74 l3.4 0 c2.26 0 3.18 -1.66 3.18 -3.36 s-0.92 -3.38 -3.18 -3.38 l-3.4 0 z M931.4939999999999 20 l0 -14 l1.8 0 l0 14 l-1.8 0 z M948.8209999999998 6 l1.8 0 l0 14.2 l-0.22 0 l-9.4 -9.98 l0 9.78 l-1.78 0 l0 -14.2 l0.2 0 l9.4 9.98 l0 -9.78 z M965.2879999999999 7.720000000000001 l-4.08 0 l0 12.28 l-1.8 0 l0 -12.28 l-4.1 0 l0.12 -1.72 l9.74 0 z M971.0149999999999 20.1 c-0.7 0 -1.2 -0.5 -1.2 -1.18 c0 -0.66 0.5 -1.16 1.2 -1.16 c0.64 0 1.14 0.5 1.14 1.16 c0 0.68 -0.5 1.18 -1.14 1.18 z"></path></g></svg>