<svg xmlns="http://www.w3.org/2000/svg" width="104.66314882023515" height="104.66314882023515"
    viewBox="0 0 104.66314882023515 107"
    class="looka-1j8o68f">
    <defs id="SvgjsDefs3333">
        <linearGradient id="SvgjsLinearGradient3340">
            <stop id="SvgjsStop3341" stop-color="#006838" offset="0"></stop>
            <stop id="SvgjsStop3342" stop-color="#96cf24" offset="1"></stop>
        </linearGradient>
    </defs>
    <g id="SvgjsG3334" featurekey="symbolFeature-0"
        
        fill="#04a118">
        <path xmlns="http://www.w3.org/2000/svg"
            d="M55,78v12H45V78c0-1.1,0.9-2,2-2h6C54.1,76,55,76.9,55,78z M27,76h-6c-1.1,0-2,0.9-2,2v12h10V78C29,76.9,28.1,76,27,76z   M79,76h-6c-1.1,0-2,0.9-2,2v12h10V78C81,76.9,80.1,76,79,76z M81.7,33h-2.3c-0.5,0-1.1-0.2-1.5-0.6c-0.4-0.4-0.6-0.9-0.5-1.5l0-0.4  c0-0.2,0-0.4,0-0.7c0-11-8.8-19.8-19.5-19.8c-5.2,0-10.1,2-13.8,5.8c-0.6,0.6-1.5,0.8-2.3,0.4c-2.1-1-4.3-1.6-6.6-1.6  c-8.3,0-15,6.8-15,15.2c0,0.3,0,0.5,0,0.8l0,0.2c0,0.5-0.2,1.1-0.5,1.5c-0.4,0.4-0.9,0.6-1.5,0.6C13.2,33,9,37.3,9,42.5  c0,5.2,4.1,9.4,9.2,9.5c0.7,0,1.3,0.4,1.7,1l4.1,7l4.1-7c0.4-0.6,1-1,1.7-1h14.3c0.7,0,1.4,0.4,1.7,1l4.1,7l4.1-7c0.4-0.6,1-1,1.7-1  h14.3c0.7,0,1.4,0.4,1.7,1l4.1,7l4.1-7c0.4-0.6,1-1,1.7-1c5.1-0.1,9.2-4.3,9.2-9.5C91,37.3,86.8,33,81.7,33z"></path>
    </g>
    
</svg>