<svg xmlns="http://www.w3.org/2000/svg" id="Layer_3" viewBox="0 0 1685.2 909.4"><defs><style>.cls-1{fill:#fff;}.cls-1,.cls-2,.cls-3,.cls-4{font-family:CeraPRO-Regular, 'Cera PRO';isolation:isolate;}.cls-1,.cls-3,.cls-4{font-size:36px;}.cls-5,.cls-4{fill:#ffe740;}.cls-2{font-size:20px;}.cls-6{fill:#0054ff;}.cls-7{stroke-width:1.75px;}.cls-7,.cls-8,.cls-9,.cls-10{stroke:#002c55;}.cls-7,.cls-8,.cls-9,.cls-10,.cls-11,.cls-12{fill:none;}.cls-7,.cls-9,.cls-10{stroke-linecap:round;stroke-linejoin:round;}.cls-13{fill:#69aa77;}.cls-14{fill:#7ccae9;}.cls-15{letter-spacing:0em;}.cls-16{fill:#26813f;}.cls-8,.cls-10{stroke-width:2.55px;}.cls-8,.cls-12{stroke-miterlimit:10;}.cls-17{fill-rule:evenodd;}.cls-17,.cls-18{fill:#002c55;}.cls-19{letter-spacing:-.02em;}.cls-3,.cls-20{fill:#f17461;}.cls-9{stroke-width:1.7px;}.cls-12{stroke:#fff;stroke-width:4.06px;}.cls-21{fill:#f7f7f7;}</style></defs><g><g><rect class="cls-5" x="500.9" y="222.5" width="333.3" height="619.4"/><rect class="cls-13" x="79.2" y="222.5" width="418.5" height="619.4"/><rect class="cls-13" x="1184.4" y="222.5" width="387.8" height="626"/><rect class="cls-20" x="838.3" y="222.5" width="342.5" height="619.4"/></g><g><polygon class="cls-7" points="668.1 534.1 657.6 534.1 642.5 534.1 642.5 503.4 668.1 503.4 668.1 534.1"/><polygon class="cls-7" points="668.1 503.4 657.6 503.4 642.5 503.4 631.8 492 678.9 492 668.1 503.4"/><line class="cls-7" x1="631.1" y1="558" x2="642.5" y2="534.1"/><line class="cls-7" x1="668.1" y1="534.1" x2="635.8" y2="558"/><line class="cls-7" x1="679.6" y1="558" x2="668.1" y2="534.1"/><polyline class="cls-7" points="668.1 520.2 642.5 534.1 674.9 558"/><line class="cls-7" x1="668.1" y1="503.4" x2="642.5" y2="520.2"/><line class="cls-7" x1="642.5" y1="503.4" x2="668.1" y2="520.2"/><line class="cls-7" x1="642.5" y1="520.2" x2="668.1" y2="534.1"/></g><g><polygon class="cls-7" points="735.6 534.1 725.1 534.1 710 534.1 710 503.4 735.6 503.4 735.6 534.1"/><polygon class="cls-7" points="735.6 503.4 725.1 503.4 710 503.4 699.3 492 746.4 492 735.6 503.4"/><line class="cls-7" x1="698.6" y1="558" x2="710" y2="534.1"/><line class="cls-7" x1="735.6" y1="534.1" x2="703.3" y2="558"/><line class="cls-7" x1="747.1" y1="558" x2="735.6" y2="534.1"/><polyline class="cls-7" points="735.6 520.2 710 534.1 742.4 558"/><line class="cls-7" x1="735.6" y1="503.4" x2="710" y2="520.2"/><line class="cls-7" x1="710" y1="503.4" x2="735.6" y2="520.2"/><line class="cls-7" x1="710" y1="520.2" x2="735.6" y2="534.1"/></g><g><polygon class="cls-7" points="803.1 534.1 792.6 534.1 777.5 534.1 777.5 503.4 803.1 503.4 803.1 534.1"/><polygon class="cls-7" points="803.1 503.4 792.6 503.4 777.5 503.4 766.8 492 813.8 492 803.1 503.4"/><line class="cls-7" x1="766" y1="558" x2="777.5" y2="534.1"/><line class="cls-7" x1="803.1" y1="534.1" x2="770.8" y2="558"/><line class="cls-7" x1="814.6" y1="558" x2="803.1" y2="534.1"/><polyline class="cls-7" points="803.1 520.2 777.5 534.1 809.9 558"/><line class="cls-7" x1="803.1" y1="503.4" x2="777.5" y2="520.2"/><line class="cls-7" x1="777.5" y1="503.4" x2="803.1" y2="520.2"/><line class="cls-7" x1="777.5" y1="520.2" x2="803.1" y2="534.1"/></g><polyline class="cls-8" points="590.7 550.8 79.2 550.8 79.2 558.5 131.5 558.5 131.5 684.7 137.6 684.7 137.6 558.5 200.5 558.5 200.5 667.7 206.5 667.7 206.5 558.5 269.4 558.5 269.4 667.7 275.4 667.7 275.4 558.5 345 558.5 345 657.5 350.6 657.5 350.6 558.5 836.6 558.5"/><path class="cls-14" d="M593.6,760.4c-13.2-7-20-16.2-25.5-23.6-7.5-10.2-11.7-15.9-35.8-15.9H79.2v-20.2h0v158.8H1572.2v-88.4H650c-24.7,0-42.6-3.4-56.4-10.7h0Z"/><path class="cls-21" d="M650,738.1c-18.6,0-32.4-2.3-41-6.9-6.5-3.5-10-8.1-14.3-14-4.5-6.1-9.1-11.8-15.2-16.5-10-7.7-23.8-12.9-47.3-12.9H79.2v33.1h453.1c24.1,0,28.3,5.7,35.8,15.9,5.5,7.4,12.2,16.6,25.5,23.6,13.8,7.3,31.8,10.7,56.5,10.7h922.1v-33.1H650v.1Z"/><polygon class="cls-21" points="1029.7 566.8 1014.1 566.8 954.7 748.1 1089.1 748.1 1029.7 566.8"/><polygon class="cls-6" points="1023.2 566.8 1020.6 566.8 1010.7 748.1 1033.2 748.1 1023.2 566.8"/><g><polygon class="cls-18" points="612.4 691.6 612.4 692 623.2 692 650.3 673.7 650.2 673.2 646.2 673.2 612.4 691.6"/><polygon class="cls-18" points="690.3 691.6 690.3 692 701.1 692 728.2 673.7 728.1 673.2 724.1 673.2 690.3 691.6"/><polygon class="cls-18" points="772.5 691.6 772.4 692 783.2 692 810.3 673.7 810.3 673.2 806.3 673.2 772.5 691.6"/></g><g><path class="cls-18" d="M608.4,449.4c2.4,5.1,7,8.9,12.4,10.3s11.3,.2,15.8-3.2,7.3-8.6,7.5-14.3c2.2,1.8,4.8,3.1,7.7,3.8,1.2,3.8,3.8,7,7.3,8.9s7.6,2.4,11.4,1.3,7.1-3.6,9.1-7c3.3,1.2,6.9,.9,9.9-.9,3-1.7,5.1-4.7,5.8-8.1,.6-3.4-.3-7-2.5-9.7,3.4-5.6,3.6-12.6,.5-18.4-3-5.8-8.9-9.6-15.4-10,1.1-4.5-.1-9.2-3.2-12.6-3.1-3.4-7.8-5-12.3-4.2s-8.4,3.8-10.2,8.1c-3.9-4.6-9.4-7.5-15.4-8.2s-12,.9-16.9,4.5-8.2,8.8-9.3,14.8c-5-2.7-11-3-16.3-.8s-9.2,6.8-10.8,12.3c-4,.3-7.5,2.6-9.4,6.1s-1.9,7.7-.1,11.2,5.4,5.9,9.3,6.3c-1.1,4.3,0,9,2.9,12.4,3,3.4,7.4,5.1,11.8,4.6,4.4-.6,8.4-3.2,10.4-7.2h0Z"/><path class="cls-18" d="M698.9,402.1c1.6,0,3.1-.4,4.5-1.1,1,1.9,2.7,3.4,4.8,4.2s4.3,.6,6.3-.2c2-.9,3.6-2.5,4.5-4.5s.9-4.3,.2-6.3c-.8-2.1-2.2-3.8-4.2-4.7s-4.2-1.2-6.3-.6c-.8-2.4-2.4-4.5-4.6-5.7s-4.8-1.7-7.2-1.2c-2.5,.5-4.7,1.9-6.2,4-1.5,2-2.2,4.6-1.9,7.1s1.5,4.8,3.3,6.5c1.8,1.6,4.2,2.6,6.8,2.5h0Z"/><path class="cls-18" d="M568.3,445.4c-1.8-1-3.8-1.4-5.8-1.1s-3.8,1.4-5.1,3-2,3.6-1.9,5.6c-2.2,.9-3.7,2.9-4.1,5.2-.4,2.3,.4,4.7,2.2,6.2,1.7,1.6,4.2,2.1,6.4,1.5s4-2.4,4.7-4.6c2.4-.2,4.6-1.4,6.1-3.4,1.5-1.9,2-4.4,1.6-6.8-.6-2.3-2-4.3-4.1-5.6h0Z"/></g><g><path class="cls-18" d="M1031.9,451c2.1,4,6,6.6,10.5,7.2s8.9-1.2,11.8-4.6,4-8,2.9-12.4c4-.4,7.5-2.8,9.3-6.3s1.8-7.8-.1-11.2c-1.9-3.5-5.4-5.8-9.4-6.1-1.5-5.5-5.5-10-10.8-12.3-5.3-2.2-11.3-1.9-16.3,.8-1.1-5.9-4.5-11.2-9.3-14.8-4.9-3.6-10.9-5.2-16.9-4.5s-11.5,3.6-15.4,8.2c-1.8-4.2-5.7-7.3-10.2-8.1-4.5-.8-9.2,.8-12.3,4.2s-4.3,8.1-3.2,12.6c-6.5,.4-12.4,4.2-15.4,10s-2.8,12.8,.5,18.4c-2.2,2.7-3.1,6.2-2.5,9.7s2.7,6.4,5.8,8.1,6.7,2.1,9.9,.9c2,3.4,5.3,5.9,9.1,7s7.9,.6,11.4-1.3,6.1-5.1,7.3-8.9c2.8-.7,5.4-2,7.7-3.8,.2,5.6,3,10.9,7.5,14.3s10.3,4.6,15.8,3.2c5.4-1.5,10-5.2,12.3-10.3h0Z"/><path class="cls-18" d="M941.5,403.7c2.5,0,5-.9,6.8-2.6s3.1-4,3.3-6.5c.3-2.5-.4-5-1.9-7.1-1.5-2-3.7-3.5-6.2-4s-5.1-.1-7.2,1.2c-2.2,1.3-3.8,3.3-4.6,5.7-2.1-.6-4.3-.4-6.3,.6s-3.5,2.7-4.2,4.7c-.8,2.1-.7,4.3,.2,6.3s2.5,3.6,4.5,4.5,4.3,1,6.3,.2c2.1-.7,3.8-2.2,4.8-4.2,1.4,.8,2.9,1.2,4.5,1.2h0Z"/><path class="cls-18" d="M1072.1,447c-2.1,1.2-3.5,3.3-4,5.7-.5,2.4,.1,4.8,1.6,6.8,1.5,1.9,3.7,3.1,6.1,3.4,.7,2.2,2.4,4,4.7,4.6s4.7,.1,6.4-1.5,2.6-3.9,2.2-6.2-1.9-4.3-4.1-5.2c.1-2-.6-4-1.9-5.6s-3.1-2.6-5.1-3c-2.1-.5-4.2-.1-5.9,1h0Z"/></g><path class="cls-6" d="M789.6,480.1h0l21.6-30-13.4,1.2,2.5-21h-.1l-21.5,30,13.4-1.2-2.5,21Z"/><path class="cls-6" d="M722.1,480.1h0l21.6-30-13.4,1.2,2.5-21h-.1l-21.5,30,13.4-1.2-2.5,21Z"/><g><path class="cls-16" d="M618.1,625.8c2.4,0,4.3-1.9,4.3-4.3s-1.9-4.3-4.3-4.3-4.3,1.9-4.3,4.3,1.9,4.3,4.3,4.3Z"/><polygon class="cls-16" points="612.4 691.7 612.4 692 623.2 692 619.8 627.6 619.8 627.3 615.8 627.3 612.4 691.7"/><polygon class="cls-16" points="626.6 610.1 618 576.1 617.9 575.9 615.5 575.9 616 615.7 619.8 615.7 626.6 610.1"/><polygon class="cls-16" points="622.6 623.9 623.7 632.7 657.1 643.3 657.3 643.4 658.6 641.4 624.6 620.7 622.6 623.9"/><polygon class="cls-16" points="612.9 625.1 610.9 621.8 602.5 619 578 644.4 579.3 646.4 612.9 625.1"/></g><g><path class="cls-16" d="M778.1,625.8c2.4,0,4.3-1.9,4.3-4.3s-1.9-4.3-4.3-4.3-4.3,1.9-4.3,4.3,1.9,4.3,4.3,4.3Z"/><polygon class="cls-16" points="772.5 691.7 772.4 692 783.2 692 779.9 627.6 779.8 627.3 775.8 627.3 772.5 691.7"/><polygon class="cls-16" points="786.6 610.1 778 576.1 777.9 575.9 775.5 575.9 776 615.7 779.8 615.7 786.6 610.1"/><polygon class="cls-16" points="782.6 623.9 783.7 632.7 817.1 643.3 817.3 643.4 818.6 641.4 784.6 620.7 782.6 623.9"/><polygon class="cls-16" points="772.9 625.1 770.9 621.8 762.6 619 738 644.4 739.3 646.4 772.9 625.1"/></g><g><path class="cls-16" d="M696,625.8c2.4,0,4.3-1.9,4.3-4.3s-1.9-4.3-4.3-4.3-4.3,1.9-4.3,4.3,1.9,4.3,4.3,4.3Z"/><polygon class="cls-16" points="690.3 691.7 690.3 692 701.1 692 697.7 627.6 697.7 627.3 693.7 627.3 690.3 691.7"/><polygon class="cls-16" points="696.5 607.2 670.9 583.3 670.7 583.2 668.7 584.5 690.7 617.6 693.9 615.5 696.5 607.2"/><polygon class="cls-16" points="700.7 621 706.4 627.7 740.2 618.5 740.5 618.4 740.4 616.1 700.7 617.2 700.7 621"/><polygon class="cls-16" points="693.2 627.2 689.8 625.6 681.3 627.8 674.5 662.4 676.6 663.4 693.2 627.2"/></g><ellipse class="cls-5" cx="561.8" cy="485" rx="20.3" ry="2.1"/><circle class="cls-18" cx="561.7" cy="486.5" r="8.9"/><circle class="cls-18" cx="572.1" cy="469.1" r="3.4"/><g><path d="M976,741.4c-5.2,0-9.4,4.2-9.4,9.4s4.2,9.4,9.4,9.4,9.4-4.2,9.4-9.4-4.2-9.4-9.4-9.4h0Zm0,14c-2.5,0-4.6-2-4.6-4.6s2-4.6,4.6-4.6,4.6,2,4.6,4.6-2,4.6-4.6,4.6Z"/><path d="M895,741.4c-5.2,0-9.4,4.2-9.4,9.4s4.2,9.4,9.4,9.4,9.4-4.2,9.4-9.4-4.2-9.4-9.4-9.4Zm0,14c-2.5,0-4.6-2-4.6-4.6s2-4.6,4.6-4.6,4.6,2,4.6,4.6-2.1,4.6-4.6,4.6Z"/><g><path class="cls-18" d="M794.7,747c1.7,.3,3.5,0,5-.9s2.6-2.4,3.1-4c.5-1.7,.4-3.5-.4-5.1-.8-1.6-2.1-2.8-3.7-3.5-1.6-.7-3.4-.7-5.1-.1-1.7,.6-3,1.8-3.9,3.3-1.4-.7-2.9-.8-4.4-.4-1.5,.4-2.7,1.4-3.5,2.7s-1,2.9-.7,4.3c.3,1.5,1.2,2.8,2.5,3.6s2.8,1.2,4.3,1,2.9-1,3.8-2.2c.9,.6,1.9,1.1,3,1.3h0Z"/><path class="cls-18" d="M831.8,745.5c2.4,.5,5,0,7.1-1.3s3.7-3.3,4.4-5.7,.5-5-.6-7.2-2.9-4-5.2-5-4.9-1-7.2-.2-4.3,2.5-5.5,4.7c-1.9-1-4.1-1.2-6.2-.6-2.1,.6-3.8,2-4.9,3.8-1.1,1.8-1.4,4-1,6.2,.5,2.1,1.7,3.9,3.5,5.2s4,1.7,6.1,1.4,4-1.5,5.4-3.2c1.2,1,2.6,1.6,4.1,1.9h0Z"/><path class="cls-18" d="M832.2,744.4c-.4,3.3,.5,6.7,2.7,9.2s5.3,4,8.6,4.1,6.6-1.2,8.9-3.7c3,1.2,6.4,.8,9-1.1,2.6-1.9,4.1-5,3.9-8.2s-2-6.1-4.8-7.7c-2.8-1.6-6.3-1.6-9.1,0-2.2-1.8-4.9-2.8-7.7-2.8s-5.5,1.1-7.7,2.9c-2.1,1.9-3.5,4.4-3.8,7.3h0Z"/></g><g><path class="cls-18" d="M967.1,714.2c0-4.8,3.9-8.7,8.7-8.7h11.1l-2.7-4.7c-.7-1.2-2.5-2.2-3.9-2.2h-23.4c-1.4,0-2.6,1.2-2.6,2.6v34.7h-3.2v-41.5h-77v57.1h10v-.6c0-6.2,5-11.2,11.2-11.2s11.2,5,11.2,11.2v.6h58.5v-.6c0-6.2,5-11.2,11.2-11.2s11.2,5,11.2,11.2v.6h8c1.4,0,2.6-1.2,2.6-2.6v-22.4c0-1-.3-2.4-.8-3.6h-21.1c-5.1,0-9-3.9-9-8.7h0Z"/><path class="cls-5" d="M996.4,721.7l-9.5-16.2h-11.1c-4.8,0-8.7,3.9-8.7,8.7s3.9,8.7,8.7,8.7h21.2c-.2-.5-.4-.9-.6-1.2h0Z"/></g></g><g><path class="cls-18" d="M1053.2,626.9h-3.2v-23.8c0-1.2-.5-2.2-1.3-3s-1.9-1.3-3.1-1.3h-47.5c-1.2,0-2.2,.5-3,1.3s-1.3,1.9-1.3,3v23.8h-3.2c-1.2,0-2.2,.6-2.8,1.6s-.6,2.2,0,3.2,1.7,1.6,2.8,1.6h3.2v21.7c0,1.2,.5,2.2,1.3,3s1.9,1.3,3,1.3h2.2v5.4c0,.9,.3,1.7,1,2.3s1.4,1,2.3,1h4.3c.9,0,1.7-.3,2.3-1s1-1.4,1-2.3v-5.4h21.6v5.4c0,.9,.3,1.7,.9,2.3s1.4,1,2.3,1h4.3c.9,0,1.7-.3,2.3-1s.9-1.4,.9-2.3v-5.4h2.2c1.2,0,2.2-.5,3.1-1.3s1.3-1.9,1.3-3v-21.6h3.2c1.2,0,2.2-.6,2.8-1.6,.6-1,.6-2.2,0-3.2s-1.7-1.7-2.9-1.7h0Z"/><rect class="cls-5" x="1010.9" y="645.7" width="22.3" height="9.3"/></g><path class="cls-18" d="M999.8,530.4h-5.5v-13c0-5.6-4.4-10.2-10-10.5v-18.9h1.1c.6,0,1-.5,1-1v-2.6c0-.6-.5-1-1-1h-1.1v-3.5c0-6.4-5.2-11.6-11.6-11.6s-11.6,5.2-11.6,11.6v3.5h-1.1c-.6,0-1,.5-1,1v2.6c0,.6,.5,1,1,1h1.1v18.9h-8.1v-18.9h1.1c.6,0,1-.5,1-1v-2.6c0-.6-.5-1-1-1h-1.1v-3.5c0-6.4-5.2-11.6-11.6-11.6s-11.6,5.2-11.6,11.6v3.5h-1.1c-.6,0-1,.5-1,1v2.6c0,.6,.5,1,1,1h1.1v18.9h-12.7l-1.3-26.1h2.4v-5.6h-2.7l-2-39.8h1.7v-5.7h-19.8v5.7h1.7l-2,39.8h-2.7v5.6h2.4l-2.1,42h-5.1v7.6h-6.1v-50.2h3.1v-5h-28.1v5h3v50.2h-4.2v26.9h-17v10.5h166.6v-6.8h-5.2l.1-30.6h0Zm-137.3-44.7l6.2,4.6-6.2,4.6v-9.2Zm0,15l6.2,4.6-6.2,4.6v-9.2Zm0,14.9l6.2,4.6-6.2,4.6v-9.2h0Zm16,14.8h-16.1v-2.9l8-6h.1l8,5.9v3h0Zm0-5.6l-6.2-4.6,6.2-4.6v9.2h0Zm0-11.8l-8,6h-.1l-8-5.9v-.3l8-6,8,6,.1,.2h0Zm0-3l-6.2-4.6,6.2-4.6v9.2Zm0-12l-8,6-8-6v-.3l8-6,8,6v.3Zm0-2.9l-6.2-4.6,6.2-4.6v9.2Zm0-12l-8,6-8-6v-2.9h16.1l-.1,2.9h0Zm51.2,47.3h-6.8v-7.6h-5.1l-.6-12.5h12.6l-.1,20.1h0Zm31.4,0h-8.1v-20h8.1v20Zm29.8,0h-6.5v-20c3.6,.3,6.5,3.3,6.5,7v13Z"/><g><path class="cls-18" d="M938.5,618.8c0-13.9-11.2-25.1-25.1-25.1s-25.1,11.2-25.1,25.1c0,12.9,9.8,23.6,22.3,25v-13l-9.8-12.3c-.8-1-.6-2.4,.4-3.2s2.4-.6,3.2,.4l6.2,7.8v-2c0-1.2,1-2.3,2.3-2.3s2.3,1,2.3,2.3v6.1l10.5-19c.6-1.1,2-1.5,3.1-.9s1.5,2,.9,3.1l-14.4,26.2v7c12.9-1.1,23.2-12,23.2-25.2h0Z"/><path class="cls-20" d="M929.6,610.6c.6-1.1,.2-2.5-.9-3.1-1.1-.6-2.5-.2-3.1,.9l-10.5,19v-6.1c0-1.2-1-2.3-2.3-2.3s-2.3,1-2.3,2.3v2l-6.2-7.8c-.8-1-2.2-1.1-3.2-.4s-1.1,2.2-.4,3.2l9.8,12.3v13c.9,.1,1.8,.2,2.8,.2,.6,0,1.2,0,1.8-.1v-7l14.5-26.1h0Z"/><path class="cls-18" d="M915.2,643.8c-.6,0-1.2,.1-1.8,.1-.9,0-1.8,0-2.8-.2v21.2h4.5l.1-21.1h0Z"/><path class="cls-18" d="M1096,618.8c0-13.9,11.2-25.1,25.1-25.1s25.1,11.2,25.1,25.1c0,12.9-9.8,23.6-22.3,25v-33.6c0-1.2-1-2.3-2.3-2.3s-2.3,1-2.3,2.3v17.4l-5.7-10.4c-.6-1.1-2-1.5-3.1-.9s-1.5,2-.9,3.1l9.7,17.6v7c-13.1-1.1-23.3-12-23.3-25.2h0Z"/><path class="cls-20" d="M1109.6,619.2c-.6-1.1-.2-2.5,.9-3.1s2.5-.2,3.1,.9l5.7,10.4v-17.4c0-1.2,1-2.3,2.3-2.3s2.3,1,2.3,2.3v33.6c-.9,.1-1.8,.2-2.8,.2-.6,0-1.2,0-1.8-.1v-7l-9.7-17.5h0Z"/><path class="cls-18" d="M1119.3,643.8c.6,0,1.2,.1,1.8,.1,.9,0,1.8,0,2.8-.2v21.2h-4.5l-.1-21.1h0Z"/></g><g><path class="cls-16" d="M585.5,519.5c-1.2-4.7-2.1-9.6-2.7-14.7-9.4,1.4-19.1,1.4-21.1,1.4s-11.7-.1-21.1-1.4c-.6,5.1-1.5,10-2.7,14.7,5.9,1.1,14,2,23.9,2s17.8-.8,23.7-2Z"/><path class="cls-16" d="M582.2,498.8c-.3-3.4-.4-6.8-.4-10.3v-3.4h-40.4v3.4c0,3.5-.1,6.9-.4,10.3,5.5,.8,12.4,1.4,20.5,1.4s15.2-.6,20.7-1.4h0Z"/><path class="cls-16" d="M592.4,539.2c-2-4.3-3.8-8.9-5.2-13.7-10.6,2.1-23.2,2.2-25.5,2.2s-14.9-.1-25.5-2.2c-1.5,4.8-3.2,9.4-5.2,13.7,5.5,1.9,16.2,3.7,30.7,3.7s25.2-1.9,30.7-3.7Z"/><path class="cls-16" d="M595.2,544.6c-11,4.2-30.5,4.4-33.5,4.4s-22.5-.2-33.5-4.4c-3.1,5.6-6.6,10.5-10.5,14.8h87.9c-3.8-4.2-7.3-9.2-10.4-14.8h0Z"/><path class="cls-21" d="M582.8,504.8c-.2-2-.5-4-.6-6.1-5.5,.8-12.4,1.4-20.5,1.4s-15-.6-20.5-1.4c-.2,2-.4,4.1-.6,6.1,9.4,1.4,19.1,1.4,21.1,1.4s11.7,0,21.1-1.4Z"/><path class="cls-21" d="M587.2,525.5c-.6-1.9-1.1-3.9-1.6-5.9-5.9,1.1-14,2-23.9,2s-18-.9-23.9-2c-.5,2-1,4-1.6,5.9,10.6,2.1,23.2,2.2,25.5,2.2s14.8-.2,25.5-2.2Z"/><path class="cls-21" d="M595.2,544.6c-1-1.8-1.9-3.6-2.8-5.5-5.5,1.8-16.2,3.7-30.7,3.7s-25.2-1.9-30.7-3.7c-.9,1.9-1.8,3.7-2.8,5.5,11,4.2,30.5,4.4,33.5,4.4s22.5-.2,33.5-4.4Z"/></g><g><polygon class="cls-18" points="477.2 627.9 351.9 627.9 302.6 660.1 445.2 660.1 477.2 627.9"/><polygon class="cls-18" points="385.5 576.6 373.1 576.6 373.1 603.1 385.5 594.6 385.5 576.6"/><polygon class="cls-18" points="351.4 576.6 339.4 576.6 339.4 603.1 351.4 594.6 351.4 576.6"/><path class="cls-21" d="M209.4,540.6c1.8,0,3.2,1.5,3.2,3.2s-1.4,3.2-3.2,3.2-3.2-1.5-3.2-3.2,1.5-3.2,3.2-3.2m0-4.5c-4.3,0-7.8,3.5-7.8,7.8s3.5,7.8,7.8,7.8,7.8-3.5,7.8-7.8-3.5-7.8-7.8-7.8h0Z"/><path class="cls-21" d="M264.1,540.6c1.8,0,3.2,1.5,3.2,3.2s-1.5,3.2-3.2,3.2-3.2-1.5-3.2-3.2,1.5-3.2,3.2-3.2m0-4.5c-4.3,0-7.8,3.5-7.8,7.8s3.5,7.8,7.8,7.8,7.8-3.5,7.8-7.8-3.5-7.8-7.8-7.8h0Z"/><path class="cls-21" d="M170,540.6c1.8,0,3.2,1.5,3.2,3.2s-1.4,3.2-3.2,3.2-3.2-1.5-3.2-3.2,1.4-3.2,3.2-3.2m0-4.5c-4.3,0-7.8,3.5-7.8,7.8s3.5,7.8,7.8,7.8,7.8-3.5,7.8-7.8-3.6-7.8-7.8-7.8h0Z"/><path class="cls-21" d="M133.4,540.6c1.8,0,3.2,1.5,3.2,3.2s-1.4,3.2-3.2,3.2-3.2-1.5-3.2-3.2,1.4-3.2,3.2-3.2m0-4.5c-4.3,0-7.8,3.5-7.8,7.8s3.5,7.8,7.8,7.8,7.8-3.5,7.8-7.8-3.6-7.8-7.8-7.8h0Z"/><rect class="cls-18" x="120.7" y="536.4" width="172.3" height="5.7"/><polygon class="cls-5" points="302.6 660.1 302.6 601.6 339.4 576.6 339.4 601.6 373.1 576.6 373.1 603.1 445.2 603.1 445.2 660.1 302.6 660.1"/><polygon class="cls-18" points="456.2 591.8 445.2 603.1 445.2 660.1 456.2 648.7 456.2 591.8"/><polygon class="cls-18" points="445.2 603.1 456.2 591.8 382.9 591.8 373.1 603.1 445.2 603.1"/><rect class="cls-6" x="376.2" y="616.6" width="11.7" height="11.2"/><rect class="cls-6" x="397.9" y="616.6" width="11.7" height="11.2"/><rect class="cls-6" x="419.6" y="616.6" width="11.7" height="11.2"/><rect class="cls-6" x="376.2" y="635.8" width="11.7" height="11.2"/><rect class="cls-6" x="397.9" y="635.8" width="11.7" height="11.2"/><rect class="cls-6" x="419.6" y="635.8" width="11.7" height="11.2"/><polygon class="cls-18" points="416 600.8 450 600.8 448.6 591.9 417.4 591.9 416 600.8"/><polygon class="cls-18" points="417.7 589.1 448.4 589.1 446.2 575.2 419.9 575.2 417.7 589.1"/><polygon class="cls-18" points="441.5 545.3 424.5 545.3 422.6 557.5 443.4 557.5 441.5 545.3"/><polygon class="cls-18" points="422.3 559.4 420.2 573.3 445.9 573.3 443.7 559.4 422.3 559.4"/><polygon class="cls-21" points="417.4 591.8 448.6 591.8 448.4 589.1 417.7 589.1 417.4 591.8"/><polygon class="cls-21" points="419.9 575.2 446.2 575.2 445.9 573.3 420.2 573.3 419.9 575.2"/><polygon class="cls-21" points="443.4 557.5 422.6 557.5 422.3 559.4 443.7 559.4 443.4 557.5"/><g><path class="cls-18" d="M398,500.5c2,4.3,5.8,7.4,10.4,8.6,4.6,1.1,9.4,.2,13.2-2.7,3.8-2.8,6.1-7.2,6.2-11.9,1.9,1.5,4,2.6,6.4,3.2,1,3.2,3.1,5.8,6,7.4s6.3,2,9.5,1.1,5.9-3,7.6-5.8c2.7,1,5.8,.7,8.3-.7,2.5-1.5,4.3-3.9,4.8-6.8s-.2-5.8-2.1-8.1c2.8-4.7,3-10.5,.4-15.3-2.5-4.8-7.4-8-12.9-8.3,1-3.7-.1-7.7-2.7-10.5s-6.5-4.1-10.3-3.5c-3.8,.7-7,3.2-8.5,6.7-3.3-3.8-7.9-6.3-12.9-6.9s-10,.8-14.1,3.7-6.8,7.4-7.8,12.3c-4.2-2.3-9.2-2.5-13.6-.7s-7.7,5.6-9,10.2c-3.3,.3-6.3,2.2-7.9,5.1s-1.6,6.4-.1,9.4,4.5,4.9,7.8,5.2c-.9,3.6,0,7.5,2.4,10.3,2.5,2.8,6.1,4.2,9.9,3.8s7.3-2.5,9-5.8h0Z"/><path class="cls-18" d="M389.1,526.8c1,.9,2.1,1.5,3.4,1.8-.5,1.8-.2,3.6,.6,5.2,.9,1.6,2.3,2.8,4.1,3.4s3.6,.5,5.3-.3,3-2.1,3.6-3.8,.7-3.6,0-5.3-2-3.1-3.6-3.9c.9-1.9,1-4.1,.3-6.1s-2-3.7-3.9-4.8-4-1.4-6-1c-2.1,.4-3.9,1.6-5.1,3.3s-1.8,3.8-1.6,5.9,1.3,4.3,2.9,5.6h0Z"/><path class="cls-18" d="M436.6,490.3c-2.8-.1-5.5,.7-7.7,2.5-2.2,1.7-3.7,4.2-4.2,6.9-.5,2.7-.1,5.5,1.3,8-2,2.5-2.6,5.8-1.6,8.8s3.5,5.3,6.6,6.1,6.4-.1,8.7-2.3c2.3-2.2,3.3-5.4,2.7-8.5,2.8-1.8,4.6-4.7,5.1-7.9s-.4-6.5-2.5-9.1c-2.1-2.7-5.1-4.3-8.4-4.5h0Z"/></g><g><path class="cls-18" d="M254.1,448.5c-.7-4.7-3.4-8.8-7.5-11.2-4-2.4-9-2.9-13.4-1.3s-7.9,5.1-9.4,9.6c-1.3-2-3.1-3.7-5.2-4.9,0-3.3-1.3-6.5-3.6-8.9s-5.5-3.7-8.8-3.8-6.5,1.1-9,3.4c-2.3-1.7-5.3-2.4-8.1-1.7-2.8,.7-5.2,2.5-6.6,5.1s-1.5,5.6-.3,8.3c-4.1,3.7-5.9,9.2-4.9,14.5,1,5.4,4.8,9.8,9.9,11.7-2,3.3-2.2,7.4-.5,10.9s5,5.8,8.8,6.3,7.6-1,10.1-4c2,4.6,5.7,8.3,10.3,10.3s9.8,2.2,14.6,.5c4.7-1.7,8.7-5.1,11-9.5,3.4,3.4,8.1,5.1,12.8,4.6,4.7-.5,9-3.2,11.6-7.2,3.2,.7,6.6-.3,9-2.6,2.4-2.3,3.4-5.7,2.8-9s-2.9-6-5.9-7.3c2-3.2,2.2-7.1,.7-10.6-1.5-3.4-4.7-5.9-8.3-6.5s-7.5,.6-10.1,3.3h0Z"/><path class="cls-18" d="M170.5,464.4c-1.2-.4-2.6-.4-3.8-.2-.3-1.8-1.3-3.4-2.8-4.5s-3.3-1.6-5.1-1.4-3.5,1.1-4.6,2.5c-1.2,1.4-1.8,3.2-1.7,5s.9,3.5,2.2,4.8,3.1,2,4.9,2c0,2.1,.9,4.1,2.3,5.7,1.4,1.5,3.4,2.5,5.5,2.7s4.2-.4,5.9-1.7c1.7-1.3,2.8-3.1,3.2-5.2s0-4.2-1.1-6-2.9-3.2-4.9-3.7h0Z"/><path class="cls-18" d="M280.5,474.9c-.6,1.6-.5,3.4,.1,5s1.8,2.9,3.3,3.7c1.5,.8,3.2,1,4.9,.6,1.1,1.6,2.9,2.6,4.9,2.5s3.8-1.1,4.8-2.8c1-1.7,1.1-3.8,.2-5.5s-2.6-2.9-4.5-3.1c-.6-1.9-1.9-3.5-3.7-4.4-1.8-.9-3.9-.9-5.8-.2s-3.5,2.3-4.2,4.2h0Z"/></g><path class="cls-11" d="M322.5,537.5h5c2.8-4.6,9.4,.6,5.6,4.4-1.7,1.7-4.4,1.3-5.6-.7h-5c2.1,9.2,15.7,8.2,16.4-1.3-.1-2.6-.4-4.5-2.4-6.5-4.6-4.6-12.6-2.2-14,4.1Z"/><path class="cls-11" d="M294.3,539.4c0,9.9,14.3,11.4,16.5,1.9h-5c-2.8,4.6-9.4-.6-5.6-4.4,2.4-2.4,5.1,0,5.1,0,.2,.2,.4,.4,.5,.7h5c-2.2-9.6-16.5-8.1-16.5,1.8Z"/><path class="cls-11" d="M350.5,544.5c0,4.2,6.4,4.3,6.5,0-.1-4.3-6.5-4.3-6.5,0Z"/><path class="cls-18" d="M323.3,494.6v-.4c0-.8-.5-1.5-1.3-1.8-4.4-1.9-8.9-3-13.5-3s-9.3,1-14,3.1c-.6,.3-1,.8-1.1,1.5,4.1,2,16.3,6.7,29.9,.6h0Z"/><path class="cls-13" d="M323.3,497.4v-2.8c-13.5,6.1-25.7,1.4-29.9-.6v2.8c3.2,1.4,9,3.4,16,3.4,4.2,0,8.9-.8,13.9-2.8Z"/><g><path class="cls-18" d="M271.8,692.7c-4.7,0-8.4,3.8-8.4,8.4s3.8,8.4,8.4,8.4,8.4-3.8,8.4-8.4-3.8-8.4-8.4-8.4h0Zm0,12.5c-2.3,0-4.1-1.8-4.1-4.1s1.8-4.1,4.1-4.1,4.1,1.8,4.1,4.1-1.8,4.1-4.1,4.1Z"/><path class="cls-18" d="M199,692.7c-4.6,0-8.4,3.8-8.4,8.4s3.8,8.4,8.4,8.4,8.4-3.8,8.4-8.4-3.8-8.4-8.4-8.4h0Zm0,12.5c-2.3,0-4.1-1.8-4.1-4.1s1.8-4.1,4.1-4.1,4.1,1.8,4.1,4.1-1.8,4.1-4.1,4.1Z"/><g><path class="cls-18" d="M125.1,707.8c1.5,.3,3,0,4.3-.8,1.3-.8,2.2-2,2.7-3.5,.4-1.5,.3-3-.3-4.4s-1.8-2.4-3.2-3c-1.4-.6-2.9-.6-4.4-.1-1.4,.5-2.6,1.5-3.3,2.8-1.2-.6-2.5-.7-3.8-.3s-2.3,1.2-3,2.3-.9,2.5-.6,3.7c.3,1.3,1.1,2.4,2.1,3.1,1.1,.7,2.4,1,3.7,.8,1.3-.2,2.4-.9,3.2-1.9,.8,.7,1.7,1.1,2.6,1.3h0Z"/><path class="cls-18" d="M144.5,692.7c2.1,.4,4.3,0,6.1-1.1s3.2-2.9,3.8-4.9,.4-4.2-.5-6.2c-.9-1.9-2.5-3.4-4.5-4.3-2-.8-4.2-.9-6.2-.2s-3.7,2.2-4.7,4c-1.6-.8-3.6-1-5.3-.5-1.8,.5-3.3,1.7-4.2,3.3s-1.2,3.5-.8,5.3,1.5,3.4,3,4.4,3.4,1.5,5.2,1.2,3.5-1.3,4.6-2.7c1,.8,2.2,1.4,3.5,1.7h0Z"/><path class="cls-18" d="M144.9,692.5c-.4,2.8,.5,5.7,2.3,7.9s4.6,3.5,7.4,3.5,5.6-1.1,7.6-3.1c2.6,1,5.5,.7,7.8-.9,2.2-1.6,3.5-4.3,3.4-7.1s-1.7-5.3-4.2-6.6c-2.4-1.3-5.4-1.4-7.8,0-1.9-1.6-4.2-2.4-6.6-2.4s-4.8,.9-6.6,2.5c-1.9,1.5-3.1,3.7-3.3,6.2h0Z"/></g><g><path class="cls-18" d="M263.8,668.2c0-4.3,3.5-7.8,7.8-7.8h10l-2.5-4.2c-.6-1.1-2.2-2-3.5-2h-21c-1.3,0-2.3,1-2.3,2.3v31.2h-2.9v-37.3h-69.2v51.4h9v-.6c0-5.5,4.5-10,10-10s10,4.5,10,10v.6h52.6v-.6c0-5.5,4.5-10,10-10s10,4.5,10,10v.6h7.2c1.3,0,2.3-1,2.3-2.3v-20.1c0-.9-.3-2.2-.7-3.2h-19c-4.3-.2-7.9-3.7-7.8-8h0Z"/><path class="cls-5" d="M290.1,674.9l-8.5-14.6h-10c-4.3,0-7.8,3.5-7.8,7.8s3.5,7.8,7.8,7.8h19c-.1-.3-.3-.7-.5-1h0Z"/></g></g><g><rect class="cls-6" x="328.04" y="732.63" width="28.4" height="27.3" transform="translate(-406.59 1082.91) rotate(-89.57)"/><polyline class="cls-10" points="333.1 738.2 337.6 738.3 337.5 755"/><polyline class="cls-10" points="343.6 738.2 348.1 738.3 348 755"/><rect class="cls-6" x="385.99" y="733.05" width="28.4" height="27.3" transform="translate(-349.49 1141.27) rotate(-89.57)"/><rect class="cls-6" x="419.26" y="733.32" width="28.4" height="27.3" transform="translate(-316.74 1174.8) rotate(-89.57)"/><g><polygon class="cls-6" points="357.6 732.2 357.4 759.5 384.7 759.8 384.9 730.1 384.9 732.4 357.6 732.2"/><polygon class="cls-18" points="385 721.1 385 709.8 357.8 709.6 357.6 729.7 357.7 720.9 385 721.1"/><path class="cls-5" d="M385,721.1l-.1,9,.1-9Z"/><polygon class="cls-5" points="357.7 720.9 357.6 729.7 357.6 732.2 384.9 732.4 384.9 730.1 385 721.1 357.7 720.9"/></g><rect class="cls-18" x="354.33" y="690.34" width="34.5" height="5.6" transform="translate(-324.33 1059.51) rotate(-89.57)"/><polygon class="cls-18" points="390.1 706.3 352.8 706.1 357.7 718.2 385 718.4 390.1 706.3"/><polyline class="cls-10" points="425.1 738.8 429.6 738.8 429.4 755.6"/><polyline class="cls-10" points="435.6 738.7 440.1 738.8 440 755.6"/><polyline class="cls-10" points="391.5 738.3 396 738.4 395.8 755.2"/><polyline class="cls-10" points="402 738.3 406.5 738.4 406.4 755.2"/></g><path class="cls-5" d="M370.5,543.2l-13.8-17.6c2.1-4.7,1.4-9.8-.4-14.7-.3-.7-1-1.2-1.8-1.2h-4.9v-15.6c0-2.5-3.8-2.5-3.8,0v15.6h-12.1v-7.8c0-2.5-3.7-2.5-3.7,0v7.8h-6.9v-12.3c-4.9,2-9.6,2.8-13.9,2.8-7,0-12.8-2-16-3.4v34.9c-1.7,2.1-2.8,4.8-2.8,7.7,0,3.3,1.3,6.3,3.5,8.5,7,7,19,3,20.5-6.7h4.1c2,12.7,20,13.8,23.5,1.5l4.5,2.2c0,.5,.1,.9,.2,1.3h22.8c1.4-.3,2-1.8,1-3h0Zm-64.7-5.7h0c-.1-.2-.3-.5-.5-.7,0,0-2.7-2.4-5.1,0-3.8,3.8,2.9,9,5.6,4.4h5c-2.2,9.6-16.5,8-16.5-1.9s14.3-11.4,16.5-1.9h-5v.1Zm16.7,3.8h5c1.2,2,4,2.3,5.6,.7,3.8-3.8-2.9-9-5.6-4.4h-5c1.5-6.3,9.4-8.7,14-4,2,2,2.4,3.9,2.4,6.5-.7,9.4-14.3,10.4-16.4,1.2Z"/><path class="cls-21" d="M354.4,536.1c-4.3,0-7.8,3.5-7.8,7.8s3.5,7.8,7.8,7.8,7.8-3.5,7.8-7.8-3.5-7.8-7.8-7.8h0Z"/><path class="cls-13" d="M354.4,540.6c1.8,0,3.2,1.5,3.2,3.2s-1.5,3.2-3.2,3.2-3.2-1.5-3.2-3.2,1.5-3.2,3.2-3.2"/><circle class="cls-12" cx="330.6" cy="539.2" r="10.3"/><circle class="cls-12" cx="302.6" cy="539.2" r="10.3"/><path class="cls-18" d="M310.9,504.5h12.4v5.2h-12.4c-1.4,0-2.6-1.2-2.6-2.6h0c0-1.4,1.2-2.6,2.6-2.6h0Z"/><g><g><g><path class="cls-17" d="M319.8,390.3c-3.3-1.5-.6-8.1,2.9-7.1l50.5,13.9-38.5,.6-14.9-7.4h0Z"/><path d="M372,408.2c3.2,0,3.2,8.1-.1,8.1-3.4-.1-3.1-8.1,.1-8.1Z"/><path d="M336.9,408.4c3.2,0,3.1,8.3-.1,8.3-3.4-.3-3.1-8.3,.1-8.3Z"/><path d="M360.1,408.3c3.2,0,3.2,8.1-.1,8.1-3.3-.1-3.1-8.1,.1-8.1Z"/><path d="M383.6,408.2c3.2,0,3.2,8.1-.1,8.1s-3.1-8.2,.1-8.1Z"/><path d="M394.9,408c3.2,0,3.2,8.1-.1,8.1s-3.2-8.2,.1-8.1Z"/><path d="M348.4,408.3c3.1,.2,3.1,8.3-.1,8.3-3.5-.1-3.2-8.4,.1-8.3Z"/><path d="M302,408.7c3.2,0,3.2,8.1-.1,8.1-3.3-.1-3.1-8.1,.1-8.1Z"/><path d="M325.5,408.5c3.2,0,3.2,8.1-.1,8.1s-3.1-8.1,.1-8.1Z"/><path d="M313.6,408.7c3.2,0,3.2,8.1-.1,8.1s-3.1-8.2,.1-8.1Z"/><path class="cls-18" d="M288.3,417c1.6,3.7,3.2,7.4,7.9,7.4l45,.3-20.3,9.9c-3.2,1.6-.5,8.1,2.9,7.3l64.5-17.7,38.6-1c5.7-.1,7.8-7.6,2.9-10.7h0c-.7-.5-1.4-1-1.9-1.6l-14-.5,.1-4.8,10.7,.3c-3.8-5.2-8.1-5.3-28.6-5.8-26.4-.6-47.1,1.3-92.5-.2-2.9-2.9-23.8-25.7-26-24.3-2.1,1.6,10.1,26.7,11.6,30.1-1.3,2-1,3.8-1,3.8-4.6,.3-4.6,7.2,.1,7.5h0Z"/></g><path class="cls-6" d="M394.9,408c3.2,0,3.2,8.1-.1,8.1s-3.2-8.2,.1-8.1Z"/><path class="cls-6" d="M383.6,408.2c3.2,0,3.2,8.1-.1,8.1s-3.1-8.2,.1-8.1Z"/><path class="cls-6" d="M372,408.2c3.2,0,3.2,8.1-.1,8.1-3.4-.1-3.1-8.1,.1-8.1Z"/><path class="cls-6" d="M360.1,408.3c3.2,0,3.2,8.1-.1,8.1-3.3-.1-3.1-8.1,.1-8.1Z"/><path class="cls-6" d="M348.4,408.3c3.1,.2,3.1,8.3-.1,8.3-3.5-.1-3.2-8.4,.1-8.3Z"/><path class="cls-6" d="M336.9,408.4c3.2,0,3.1,8.3-.1,8.3-3.4-.3-3.1-8.3,.1-8.3Z"/><path class="cls-6" d="M325.5,408.5c3.2,0,3.2,8.1-.1,8.1s-3.1-8.1,.1-8.1Z"/></g><path class="cls-5" d="M427.9,410.9h-14c-1.5,0-2.6-1.2-2.6-2.6h0c0-1.5,1.2-2.6,2.6-2.6h10.6l3.4,5.2h0Z"/></g><rect class="cls-5" x="120.7" y="507.9" width="63" height="34.2"/><rect class="cls-5" x="111.3" y="507.9" width="72.4" height="2.9"/><polyline class="cls-7" points="131.5 514.6 138 514.6 138 537.7"/><polyline class="cls-7" points="146.1 514.6 152.6 514.6 152.6 537.7"/><polyline class="cls-7" points="160.7 514.6 167.1 514.6 167.1 537.7"/><rect class="cls-5" x="192.1" y="507.9" width="91.6" height="34.2"/><polyline class="cls-7" points="199.4 514.6 205.8 514.6 205.8 537.7"/><polyline class="cls-7" points="212.6 514.6 219 514.6 219 537.7"/><polyline class="cls-7" points="225.8 514.6 232.2 514.6 232.2 537.7"/><polyline class="cls-7" points="239 514.6 245.5 514.6 245.5 537.7"/><polyline class="cls-7" points="252.2 514.6 258.7 514.6 258.7 537.7"/><polyline class="cls-7" points="265.4 514.6 271.9 514.6 271.9 537.7"/><path class="cls-18" d="M328.5,827.8l-21.9-70.1,172,2-2.8,21.5s-28.2,2.4-43.7,48.9l-103.6-2.3h0Z"/><circle class="cls-21" cx="415.6" cy="787.6" r="13.1"/><circle class="cls-18" cx="415.6" cy="787.6" r="7.6"/><path class="cls-14" d="M280.6,811.4c16.3,0,16.3,10.5,32.6,10.5s16.3-10.5,32.6-10.5,16.3,10.5,32.6,10.5,16.3-10.5,32.6-10.5,16.3,10.5,32.6,10.5v34.9h-160.1l-2.9-45.4h0Z"/></g><polygon class="cls-18" points="910.7 664.5 910.7 664.9 915.8 664.9 948.1 646.5 948.1 646.1 944.1 646.1 910.7 664.5"/><polygon class="cls-18" points="1119.3 664.5 1119.3 664.9 1124.4 664.9 1156.8 646.5 1156.7 646.1 1152.7 646.1 1119.3 664.5"/><rect class="cls-11" x="1077.8" y="513.5" width="8" height="8"/><rect class="cls-11" x="1027.4" y="522.6" width="8" height="8"/><rect class="cls-11" x="1077.8" y="504.6" width="8" height="8"/><path class="cls-11" d="M1022.3,539c-7.1,0-12.9,5.8-12.9,12.9v11.6h25.8v-11.6c0-7.1-5.8-12.9-12.9-12.9Z"/><rect class="cls-11" x="1027.4" y="504.6" width="8" height="8"/><rect class="cls-11" x="1027.4" y="513.5" width="8" height="8"/><rect class="cls-11" x="1018.5" y="522.6" width="8" height="8"/><rect class="cls-11" x="1009.4" y="522.6" width="8" height="8"/><rect class="cls-11" x="1018.5" y="504.6" width="8" height="8"/><rect class="cls-11" x="1018.5" y="513.5" width="8" height="8"/><rect class="cls-11" x="1009.4" y="513.5" width="8" height="8"/><rect class="cls-11" x="1009.4" y="504.6" width="8" height="8"/><rect class="cls-11" x="1068.7" y="513.5" width="8" height="8"/><rect class="cls-11" x="1125.4" y="537" width="31.6" height="7.3"/><polygon class="cls-11" points="1086.7 504.6 1086.7 512.6 1094.7 512.6 1094.7 504.6 1086.9 504.6 1086.7 504.6"/><polygon class="cls-11" points="1086.7 513.5 1086.7 521.5 1094.7 521.5 1094.7 513.5 1086.9 513.5 1086.7 513.5"/><rect class="cls-11" x="1068.7" y="522.6" width="8" height="8"/><rect class="cls-11" x="1068.7" y="504.6" width="8" height="8"/><polygon class="cls-11" points="1086.7 522.6 1086.7 530.6 1094.7 530.6 1094.7 522.6 1086.9 522.6 1086.7 522.6"/><rect class="cls-11" x="1077.8" y="522.6" width="8" height="8"/><path class="cls-11" d="M1081.8,538.8h0c-7.3,0-13.1,5.8-13.1,12.9v11.6h26v-11.6c0-7.1-5.8-12.9-12.9-12.9Z"/><path class="cls-18" d="M1174.5,563.3h0v-42.9h-18.7v-96.7c0-8.2-6.7-14.9-14.9-14.9s-14.9,6.7-14.9,14.9v96.5h-14.9v-55.6l-59.1,31.6v-31.6l-59.3,31.6v67.1h-15.8v4.4h207.5v-4.4h-9.9Zm-139.3,.2h-25.8v-11.6c0-7.1,5.8-12.9,12.9-12.9s12.9,5.8,12.9,12.9v11.6Zm59.5-.2h-26v-11.6c0-7.1,5.8-12.9,13.1-12.9h0c7.1,0,12.9,5.8,12.9,12.9v11.6Zm62.2-18.9h-31.6v-7.3h31.6v7.3Z"/><rect class="cls-21" x="1184.4" y="563.3" width="387.8" height="4.4"/><g><g><g><path class="cls-17" d="M1257.7,416.1c-3.3-1.5-.6-8.1,2.9-7.1l50.5,13.9-38.5,.6-14.9-7.4h0Z"/><path d="M1309.9,434c3.2,0,3.2,8.1-.1,8.1-3.4-.1-3.2-8.1,.1-8.1Z"/><path d="M1274.8,434.2c3.2,0,3.1,8.3-.1,8.3-3.4-.3-3.1-8.3,.1-8.3Z"/><path d="M1298,434.2c3.2,0,3.2,8.1-.1,8.1-3.4-.2-3.1-8.2,.1-8.1Z"/><path d="M1321.5,434c3.2,0,3.2,8.1-.1,8.1s-3.2-8.1,.1-8.1Z"/><path d="M1332.7,433.8c3.2,0,3.2,8.1-.1,8.1s-3.1-8.1,.1-8.1Z"/><path d="M1286.2,434.1c3.2,.2,3.1,8.3-.1,8.3-3.5-.1-3.1-8.3,.1-8.3Z"/><path d="M1239.9,434.5c3.2,0,3.2,8.1-.1,8.1-3.4-.1-3.2-8.1,.1-8.1Z"/><path d="M1263.4,434.3c3.2,0,3.2,8.1-.1,8.1s-3.2-8.1,.1-8.1Z"/><path d="M1251.5,434.5c3.2,0,3.2,8.1-.1,8.1s-3.1-8.1,.1-8.1Z"/><path class="cls-18" d="M1226.2,442.8c1.6,3.7,3.2,7.4,7.9,7.4l45,.3-20.3,9.9c-3.2,1.6-.5,8.1,2.8,7.3l64.4-17.7,38.6-1c5.7-.1,7.8-7.6,2.9-10.7h0c-.7-.5-1.4-1-1.9-1.6l-14-.5,.2-4.8,10.7,.3c-3.8-5.2-8.1-5.3-28.6-5.8-26.4-.6-47.1,1.3-92.5-.2-2.9-2.9-23.8-25.7-26-24.3-2.1,1.6,10.1,26.7,11.7,30.1-1.3,2-.9,3.8-.9,3.8-4.8,.3-4.8,7.2,0,7.5h0Z"/></g><path class="cls-6" d="M1332.7,433.8c3.2,0,3.2,8.1-.1,8.1s-3.1-8.1,.1-8.1Z"/><path class="cls-6" d="M1321.5,434c3.2,0,3.2,8.1-.1,8.1s-3.2-8.1,.1-8.1Z"/><path class="cls-6" d="M1309.9,434c3.2,0,3.2,8.1-.1,8.1-3.4-.1-3.2-8.1,.1-8.1Z"/><path class="cls-6" d="M1298,434.2c3.2,0,3.2,8.1-.1,8.1-3.4-.2-3.1-8.2,.1-8.1Z"/><path class="cls-6" d="M1286.2,434.1c3.2,.2,3.1,8.3-.1,8.3-3.5-.1-3.1-8.3,.1-8.3Z"/><path class="cls-6" d="M1274.8,434.2c3.2,0,3.1,8.3-.1,8.3-3.4-.3-3.1-8.3,.1-8.3Z"/><path class="cls-6" d="M1263.4,434.3c3.2,0,3.2,8.1-.1,8.1s-3.2-8.1,.1-8.1Z"/></g><path class="cls-5" d="M1365.7,436.7h-14c-1.5,0-2.6-1.2-2.6-2.6h0c0-1.5,1.2-2.6,2.6-2.6h10.6l3.4,5.2h0Z"/></g><g><g><path class="cls-18" d="M1495.9,434.2c3.1,3.3,7.5,4.9,12,4.2s8.3-3.5,10.2-7.5,1.8-8.8-.4-12.7c3.7-1.4,6.5-4.6,7.4-8.5s-.2-8-3-10.8c-2.8-2.9-6.8-4.2-10.7-3.5-2.9-4.9-7.9-8.3-13.6-9.1-5.7-.8-11.4,1-15.6,5-2.6-5.4-7.2-9.6-12.8-11.8s-11.9-2.2-17.5,.1-10.2,6.5-12.8,11.9c-2.9-3.6-7.3-5.6-12-5.1-4.6,.4-8.7,3.1-10.8,7.2-2.2,4.1-2.1,9,.2,13-6.2,2.1-10.9,7.3-12.3,13.6-1.4,6.4,.6,13.1,5.3,17.6-1.4,3.2-1.4,6.8,.1,10,1.5,3.1,4.3,5.5,7.7,6.4,3.4,.9,7,.3,9.8-1.7,2.8,2.8,6.6,4.4,10.6,4.4s7.8-1.5,10.7-4.2c2.9-2.8,4.6-6.5,4.7-10.5,2.5-1.4,4.7-3.3,6.4-5.7,1.7,5.4,5.7,9.8,10.9,11.9,5.2,2.1,11.2,1.7,16.1-1,5-2.8,8.4-7.6,9.4-13.2h0Z"/><path class="cls-18" d="M1553,422.4c2.5,0,5-.9,6.8-2.6s3.1-4,3.3-6.5c.3-2.5-.4-5-1.9-7.1-1.5-2-3.7-3.5-6.2-4s-5.1-.1-7.2,1.2c-2.2,1.3-3.8,3.3-4.6,5.7-2.1-.6-4.3-.4-6.3,.6-1.9,1-3.5,2.7-4.2,4.7-.8,2.1-.7,4.3,.2,6.3,.9,2,2.5,3.6,4.5,4.5s4.3,1,6.3,.2c2.1-.7,3.8-2.2,4.8-4.2,1.4,.7,2.9,1.1,4.5,1.2h0Z"/><path class="cls-18" d="M1381.6,397.9c-1.6-2-3.8-3.3-6.3-3.7-2.5-.4-5.1,.1-7.2,1.5s-3.7,3.5-4.4,5.9-.4,5,.7,7.3,3.1,4,5.4,5,5,.9,7.3,0c.8,2,2.4,3.7,4.4,4.6s4.2,1,6.3,.4c2.1-.7,3.8-2.1,4.8-4.1,1-1.9,1.3-4.2,.8-6.3-.6-2.1-1.9-3.9-3.8-5.1s-4.1-1.6-6.2-1.1c-.2-1.7-.8-3.1-1.8-4.4h0Z"/></g><polygon class="cls-18" points="1341.3 567.7 1373.9 533.6 1341.3 533.6 1341.3 567.7"/><polygon class="cls-18" points="1281 567.7 1313.6 533.6 1281 533.6 1281 567.7"/><polygon class="cls-18" points="1520.5 704.8 1545.5 677.8 1521.7 677.8 1520.5 704.8"/><path class="cls-21" d="M1249,686.3c-5.6,0-10.1,4.5-10.1,10.1s4.5,10.1,10.1,10.1,10.1-4.5,10.1-10.1-4.5-10.1-10.1-10.1h0Zm-4.9,10.1c0-2.7,2.2-4.9,4.9-4.9s4.9,2.2,4.9,4.9-2.2,4.9-4.9,4.9-4.9-2.2-4.9-4.9Z"/><path class="cls-21" d="M1326.2,696.4c0,5.6,4.5,10.1,10.1,10.1s10.1-4.5,10.1-10.1-4.5-10.1-10.1-10.1-10.1,4.5-10.1,10.1Zm5.2,0c0-2.7,2.2-4.9,4.9-4.9s4.9,2.2,4.9,4.9-2.2,4.9-4.9,4.9-4.9-2.2-4.9-4.9Z"/><g><path class="cls-18" d="M1258.6,656.9c0-5.2-4.2-9.4-9.4-9.4h-11.9l2.9-5.1c.8-1.3,2.7-2.4,4.2-2.4h25.2c1.5,0,2.8,1.3,2.8,2.8v37.4h86.5v16.9h-10.9v-.7c0-6.6-5.4-12-12-12s-12,5.4-12,12v.7h-63v-.7c0-6.6-5.4-12-12-12s-12,5.4-12,12v.7h-8.6c-1.5,0-2.8-1.2-2.8-2.8v-24.1c0-1.1,.3-2.6,.8-3.9h22.8c5.2,0,9.4-4.2,9.4-9.4h0Z"/><path class="cls-5" d="M1227.1,665l10.2-17.5h11.9c5.2,0,9.4,4.2,9.4,9.4s-4.2,9.4-9.4,9.4h-22.8c.2-.5,.4-.9,.7-1.3h0Z"/></g><path class="cls-5" d="M1443.8,699.6c-.5,0-.9,.1-1.3,.2,.6-3.3,.1-6.8-1.6-9.8-1.8-3.2-4.6-5.6-8.1-6.7-2.6-.9-5.4-1-8-.4,0-1-.1-2-.3-3-.6-2.6-2.2-4.9-4.4-6.4-.2-.1-.3-.2-.5-.3,.1-.3,.1-.6,.2-1h.1c.3-3-.4-6.1-2.2-8.6-1.7-2.5-4.3-4.3-7.2-5.1s-6.1-.4-8.8,.9c-2.6-2.4-6.2-3.2-9.5-2.3-3.4,.9-6,3.5-7.1,6.8-1,3.3-.3,7,1.9,9.6,2.3,2.7,5.7,4,9.2,3.5,.8,1.3,1.7,2.5,2.9,3.4h-.1c-1.8,.7-3.2,2.1-4,3.8s-1,3.7-.4,5.5c.5,1.7,1.5,3.1,2.9,4.1-.3,1.1-.5,2.2-.5,3.3,0,2.8,.9,5.4,2.6,7.6h49.7c-.3-2.8-2.7-5.1-5.5-5.1h0Z"/><circle class="cls-5" cx="1377.6" cy="659.7" r="15.4"/><rect class="cls-5" x="1458.1" y="662.6" width="62.3" height="42.2"/><polygon class="cls-21" points="1531.4 650.8 1469 650.8 1458.1 662.6 1520.5 662.6 1531.4 650.8"/><polygon class="cls-18" points="1520.5 704.8 1531.4 692.9 1531.4 650.8 1520.5 662.6 1520.5 704.8"/><polyline class="cls-9" points="1465.4 670.4 1471.1 670.4 1471.1 698.4"/><polyline class="cls-9" points="1479.2 670.4 1484.8 670.4 1484.8 698.4"/><polyline class="cls-9" points="1492.8 670.4 1498.5 670.4 1498.5 698.4"/><polyline class="cls-9" points="1506.6 670.4 1512.2 670.4 1512.2 698.4"/><polygon class="cls-18" points="1342.7 590.8 1330.4 598 1311.6 628 1345.3 686.2 1380.7 684.9 1393 677.7 1342.7 590.8"/><rect class="cls-5" x="1232.7" y="541.9" width="48.5" height="25.8"/><rect class="cls-21" x="1230.3" y="539" width="53.3" height="3.8"/><polyline class="cls-7" points="1238.3 546.7 1242.7 546.7 1242.7 563.8"/><polyline class="cls-7" points="1249 546.7 1253.4 546.7 1253.4 563.8"/><polyline class="cls-7" points="1259.7 546.7 1264.1 546.7 1264.1 563.8"/><polyline class="cls-7" points="1270.4 546.7 1274.8 546.7 1274.8 563.8"/><rect class="cls-5" x="1232.7" y="513.2" width="48.5" height="25.8"/><rect class="cls-21" x="1230.3" y="510.4" width="53.3" height="3.8"/><polyline class="cls-7" points="1238.3 518 1242.7 518 1242.7 535.1"/><polyline class="cls-7" points="1249 518 1253.4 518 1253.4 535.1"/><polyline class="cls-7" points="1259.7 518 1264.1 518 1264.1 535.1"/><polyline class="cls-7" points="1270.4 518 1274.8 518 1274.8 535.1"/><rect class="cls-5" x="1292.8" y="541.9" width="48.5" height="25.8"/><rect class="cls-21" x="1290.4" y="539" width="53.3" height="3.8"/><polyline class="cls-7" points="1298.4 546.7 1302.8 546.7 1302.8 563.8"/><polyline class="cls-7" points="1309.1 546.7 1313.5 546.7 1313.5 563.8"/><polyline class="cls-7" points="1319.8 546.7 1324.2 546.7 1324.2 563.8"/><polyline class="cls-7" points="1330.5 546.7 1334.9 546.7 1334.9 563.8"/><rect class="cls-5" x="1292.8" y="513.2" width="48.5" height="25.8"/><rect class="cls-21" x="1290.4" y="510.4" width="53.3" height="3.8"/><polyline class="cls-7" points="1298.4 518 1302.8 518 1302.8 535.1"/><polyline class="cls-7" points="1309.1 518 1313.5 518 1313.5 535.1"/><polyline class="cls-7" points="1319.8 518 1324.2 518 1324.2 535.1"/><polyline class="cls-7" points="1330.5 518 1334.9 518 1334.9 535.1"/><polygon class="cls-5" points="1361.7 567.7 1361.7 509.3 1398.5 484.3 1398.5 509.3 1435.7 484.3 1435.7 510.8 1521.4 510.8 1521.4 567.7 1361.7 567.7"/><polygon class="cls-18" points="1532.3 499.4 1521.4 510.8 1521.4 567.7 1532.3 556.4 1532.3 499.4"/><polygon class="cls-18" points="1448 484.3 1435.7 484.3 1435.7 510.8 1448 502.3 1448 484.3"/><polygon class="cls-18" points="1410.6 484.3 1398.2 484.3 1398.2 510.8 1410.6 502.3 1410.6 484.3"/><polygon class="cls-18" points="1521.4 510.8 1532.3 499.4 1445.5 499.4 1435.7 510.8 1521.4 510.8"/><rect class="cls-6" x="1376.3" y="524.3" width="11.7" height="11.2"/><rect class="cls-6" x="1398" y="524.3" width="11.7" height="11.2"/><rect class="cls-6" x="1419.7" y="524.3" width="11.7" height="11.2"/><rect class="cls-6" x="1376.3" y="543.4" width="11.7" height="11.2"/><rect class="cls-6" x="1398" y="543.4" width="11.7" height="11.2"/><rect class="cls-6" x="1419.7" y="543.4" width="11.7" height="11.2"/><rect class="cls-6" x="1501.1" y="524.3" width="11.7" height="11.2"/><rect class="cls-6" x="1501.1" y="543.4" width="11.7" height="11.2"/><path class="cls-18" d="M1467.2,536.5h0c5.7,0,10.4,4.7,10.4,10.4v20.8h-20.8v-20.8c0-5.8,4.6-10.4,10.4-10.4h0Z"/><path class="cls-18" d="M1484,457.3h0c4.4,0,8,3.6,8,8v37.5h-16v-37.5c0-4.4,3.6-8,8-8h0Z"/><path class="cls-18" d="M1508.5,457.3h0c4.4,0,8,3.6,8,8v37.5h-16v-37.5c.1-4.4,3.6-8,8-8h0Z"/><polygon class="cls-18" points="1521.4 567.7 1554 533.6 1521.4 533.6 1521.4 567.7"/><circle class="cls-18" cx="1459.1" cy="442.2" r="7.7"/></g><g><rect class="cls-5" x="1018.5" y="504.6" width="8" height="8"/><rect class="cls-5" x="1018.5" y="513.5" width="8" height="8"/><rect class="cls-5" x="1018.5" y="522.6" width="8" height="8"/><rect class="cls-5" x="1009.4" y="504.6" width="8" height="8"/><rect class="cls-5" x="1009.4" y="513.5" width="8" height="8"/><rect class="cls-5" x="1009.4" y="522.6" width="8" height="8"/><rect class="cls-5" x="1027.4" y="522.6" width="8" height="8"/><rect class="cls-5" x="1027.4" y="513.5" width="8" height="8"/><rect class="cls-5" x="1027.4" y="504.6" width="8" height="8"/><rect class="cls-5" x="1077.8" y="504.6" width="8" height="8"/><rect class="cls-5" x="1077.8" y="513.5" width="8" height="8"/><rect class="cls-5" x="1077.8" y="522.6" width="8" height="8"/><rect class="cls-5" x="1068.7" y="504.6" width="8" height="8"/><rect class="cls-5" x="1068.7" y="513.5" width="8" height="8"/><rect class="cls-5" x="1068.7" y="522.6" width="8" height="8"/><polygon class="cls-5" points="1094.7 530.6 1086.7 530.6 1086.7 522.6 1086.9 522.6 1094.7 522.6 1094.7 530.6"/><polygon class="cls-5" points="1094.7 521.5 1086.7 521.5 1086.7 513.5 1086.9 513.5 1094.7 513.5 1094.7 521.5"/><polygon class="cls-5" points="1094.7 512.6 1086.7 512.6 1086.7 504.6 1086.9 504.6 1094.7 504.6 1094.7 512.6"/></g><path class="cls-18" d="M603.5,588.3c-6.6,4.4-10,12.8-8.2,20.5,.4,1.6,2.8,.9,2.5-.7-1.5-6.6,1.4-13.9,7.1-17.6,1.2-.9-.1-3.1-1.4-2.2h0Z"/><path class="cls-18" d="M581.7,590.9c-2.7,7.7-2.7,16.2,0,23.9,.5,1.5,3,.9,2.5-.7-2.5-7.3-2.5-15.3,0-22.6,.5-1.4-2-2.1-2.5-.6h0Z"/><path class="cls-18" d="M723.7,642.9c2.3,8.2,10.6,14.2,19.1,13.6,1.6-.1,1.6-2.7,0-2.5-7.4,.5-14.6-4.6-16.6-11.7-.5-1.7-3-1-2.5,.6h0Z"/><path class="cls-18" d="M711.8,639.4c-.5,4.4,1,8.9,4,12.2,1.1,1.2,2.9-.6,1.8-1.8-2.5-2.8-3.7-6.6-3.2-10.4,.1-.7-.6-1.3-1.3-1.3-.8,0-1.3,.6-1.3,1.3h0Z"/><path class="cls-18" d="M270.6,407.7c-5.2,.1-10.4,.2-15.6,.3-5,.1-10.1,.5-15.1,.2-2.1-.1-4.3-.6-5.8-2.2-1.3-1.4-2.1-3.2-2.4-5.1-.6-3.9,.9-8.8,5.4-9.5,1.9-.3,3.7,.6,4.4,2.4,.7,1.6,.4,3.5-.8,4.8-1.2,1.2,.6,3,1.8,1.8,2.9-2.9,2.4-8.3-1-10.5-4.1-2.7-9.5,.1-11.4,4.2-2,4.4-1.2,10.4,2.3,13.9,4.1,4,10.8,2.8,15.9,2.7,7.4-.2,14.9-.3,22.3-.5,1.6,0,1.6-2.6,0-2.5h0Z"/><path class="cls-18" d="M272.7,416.8h-11.5c-1.6,0-1.6,2.5,0,2.5h11.5c1.7,.1,1.7-2.5,0-2.5h0Z"/><path class="cls-18" d="M266.4,424.3h-26.8c-1.6,0-1.6,2.5,0,2.5h26.8c1.7,.1,1.7-2.5,0-2.5h0Z"/><path class="cls-18" d="M990,592.8c-2,.2-3.9,1.1-5.3,2.7-1.3,1.5-2.2,3.5-2.1,5.5,0,.7,.6,1.3,1.3,1.3s1.3-.6,1.3-1.3v-.6s0-.4,0-.2,0-.1,0-.2c.1-.4,.2-.8,.3-1.2,.1-.2-.1,.2,0,0,0-.1,.1-.2,.1-.3,.1-.2,.2-.3,.3-.5s.2-.3,.3-.5c.2-.2-.1,.2,0,0,.1-.1,.1-.2,.2-.3,.3-.3,.6-.6,.9-.8,.2-.2-.2,.1,0,0,.1,0,.2-.1,.2-.2,.2-.1,.3-.2,.5-.3,.1,0,.4-.3,.5-.2q-.2,.1,0,0h.1c.1,0,.2-.1,.3-.1,.2-.1,.4-.1,.5-.2,.1,0,.2,0,.3-.1q.1,0-.1,0h.2c.7-.1,1.3-.5,1.3-1.3,.1-.5-.4-1.2-1.1-1.2h0Z"/><path class="cls-18" d="M986.2,582.3c-6.1,2.4-10.8,7.6-12.4,14-.4,1.6,2.1,2.3,2.5,.7,1.3-5.5,5.4-10.2,10.7-12.2,.6-.2,1.1-.8,.9-1.6-.3-.6-1-1.1-1.7-.9h0Z"/><path class="cls-18" d="M1050.6,592h.3c.3,0-.2,0,0,0s.3,.1,.5,.1,.3,.1,.5,.2c.1,0,.2,.1,.2,.1,.3,.1-.2-.1,0,0,.3,.2,.6,.3,.9,.5,.1,.1,.3,.2,.4,.3-.2-.2,0,0,0,0,.1,.1,.2,.1,.2,.2,.3,.2,.5,.5,.7,.8l.1,.1c-.1-.1-.1-.2-.1-.1,.1,.1,.1,.2,.2,.2,.1,.2,.2,.3,.3,.5s.2,.3,.2,.5c0,0,.1,.3,.1,.1s0,.1,.1,.1c.1,.3,.2,.7,.3,1.1,.1,.7,.9,1.1,1.6,.9,.7-.2,1-.9,.9-1.6-.7-3.6-4-6.4-7.6-6.6-.7,0-1.3,.6-1.3,1.3,.3,.7,.8,1.2,1.5,1.3h0Z"/><path class="cls-18" d="M1054,581.1c5.7,.4,10.7,4.9,11.9,10.4,.3,1.6,2.8,.9,2.4-.7-1.5-6.7-7.6-11.8-14.4-12.3-.7,0-1.3,.6-1.3,1.3,.1,.7,.7,1.2,1.4,1.3h0Z"/><path class="cls-18" d="M1408.2,648.1v-10.3c0-1.6-2.6-1.6-2.6,0v10.3c.1,1.7,2.6,1.7,2.6,0h0Z"/><path class="cls-18" d="M1419.6,644.4c1.2-2.1,2.4-4.2,3.6-6.3,.3-.6,.2-1.4-.5-1.7s-1.4-.2-1.7,.5c-1.2,2.1-2.4,4.2-3.6,6.3-.3,.6-.2,1.4,.5,1.7s1.3,.1,1.7-.5h0Z"/><path class="cls-18" d="M1421.6,653.7c5-1.3,10-2.6,15.1-4,1.6-.4,.9-2.9-.7-2.5-5,1.3-10,2.6-15.1,4-1.6,.5-.9,2.9,.7,2.5h0Z"/><path class="cls-18" d="M1545.1,182.5c-6.1-4.7-13.7-7.6-21.8-7.9-6.9-11-19.1-18.3-33.1-18.3-2.9,0-5.8,.3-8.5,.9-5.7-3.3-12.4-5.2-19.5-5.2-17.4,0-32.2,11.4-37.2,27.2-.4-.2-.8-.4-1.2-.7,0-.9,.1-1.9,.1-2.8,0-35-28.3-63.3-63.3-63.3-20.6,0-38.9,9.8-50.5,25.1-10.7-8-25.2-10.3-38.4-4.9-3.7,1.5-7.1,3.6-10,6-4.6-2.9-9.9-4.5-15.7-4.5-2.3,0-4.6,.3-6.8,.8-1.6-.7-3.2-1.3-4.8-1.8-14.6-20-41.5-28.3-65.4-18.4-14.6,6-25.2,17.6-30.4,31.3-1,.4-1.9,.9-2.9,1.3-6.3-2.1-13-3.2-19.9-3.2-14.5,0-27.9,4.9-38.6,13.1-9.1-3.6-19.4-3.8-29.1,.3-.8,.3-1.5,.7-2.3,1-10.3-20.9-31.9-35.3-56.8-35.3-12.1,0-23.5,3.4-33.1,9.3-5-15.8-19.8-27.2-37.2-27.2s-33.3,12.3-37.8,29c-6.2-4.1-13.6-6.5-21.6-6.5-8.8,0-17,2.9-23.5,7.9-9.9-14.4-26.5-23.8-45.3-23.8-19.8,0-37.1,10.4-46.8,26.1-11.5-15.6-30-25.7-50.9-25.7s-38.9,9.8-50.5,25.1c-10.2-7.7-23.9-10.1-36.6-5.6-1.1-15.3-13.9-27.4-29.5-27.4-10.7,0-20,5.7-25.2,14.2-14.5-8.9-32.9-11-49.8-4-14.6,6-25.2,17.6-30.4,31.3-1,.4-2,.9-2.9,1.3-6.3-2.1-13-3.2-19.9-3.2-14.5,0-27.9,4.9-38.6,13.1-9.1-3.6-19.4-3.8-29.1,.3-.8,.3-1.5,.7-2.3,1-10.3-20.9-31.9-35.3-56.8-35.3-12.1,0-23.5,3.4-33.1,9.3-5-15.8-19.8-27.2-37.2-27.2s-33.3,12.3-37.8,29c-6.2-4.1-13.6-6.5-21.6-6.5-21.6,0-39.1,17.5-39.1,39,0,7.3,2,14.2,5.5,20.1-7.4-1.5-15.2-.9-22.7,2.2-3.3,1.4-6.4,3.2-9.1,5.3-3.4,2-6.6,4.4-9.6,7.1-6.7-1-13.7-.2-20.4,2.6-7.1,2.9-12.9,7.8-17,13.6H1572.1c-.8-16.5-11.8-30.3-27-35.1h0Z"/></g><text class="cls-2" transform="translate(1479.15 760.2)"><tspan x="0" y="0">si</tspan></text><text class="cls-2" transform="translate(1493.15 760.2)"><tspan class="cls-19" x="0" y="0">e</tspan><tspan x="11.02" y="0">v</tspan></text><text class="cls-2" transform="translate(1514.55 760.2)"><tspan class="cls-15" x="0" y="0">o.</tspan><tspan x="17.2" y="0">c</tspan></text><text class="cls-2" transform="translate(1542.57 760.2)"><tspan x="0" y="0">om</tspan></text><text class="cls-1" transform="translate(216.13 288.75)"><tspan x="0" y="0">S</tspan></text><text class="cls-1" transform="translate(236.22 288.75)"><tspan x="0" y="0">c</tspan></text><text class="cls-1" transform="translate(255.69 288.75)"><tspan x="0" y="0">ope 3</tspan></text><text class="cls-3" transform="translate(603.45 289.79)"><tspan x="0" y="0">S</tspan></text><text class="cls-3" transform="translate(623.54 289.79)"><tspan x="0" y="0">c</tspan></text><text class="cls-3" transform="translate(643.01 289.79)"><tspan x="0" y="0">ope 2</tspan></text><text class="cls-4" transform="translate(950.28 286.78)"><tspan x="0" y="0">S</tspan></text><text class="cls-4" transform="translate(970.37 286.78)"><tspan x="0" y="0">c</tspan></text><text class="cls-4" transform="translate(989.84 286.78)"><tspan x="0" y="0">ope 1</tspan></text><text class="cls-1" transform="translate(1318.82 288.37)"><tspan x="0" y="0">S</tspan></text><text class="cls-1" transform="translate(1338.91 288.37)"><tspan x="0" y="0">c</tspan></text><text class="cls-1" transform="translate(1358.38 288.37)"><tspan x="0" y="0">ope 3</tspan></text><script xmlns="" id="bw-fido2-page-script"/></svg>